<?xml version="1.0" encoding="utf-8"?>
<!DOCTYPE svg PUBLIC "-//W3C//DTD SVG 1.1//EN" "http://www.w3.org/Graphics/SVG/1.1/DTD/svg11.dtd">
<svg version="1.1" xmlns="http://www.w3.org/2000/svg" xmlns:xlink="http://www.w3.org/1999/xlink" x="0px" y="0px" viewBox="0 0 100 100">
    <defs>
        <g id="mobile">
            <path stroke-width="2" d="M55.5,86.1c0,0.8-0.6,1.4-1.4,1.4h-8.3c-0.8,0-1.4-0.6-1.4-1.4v-1.4c0-0.8,0.6-1.4,1.4-1.4h8.3c0.8,0,1.4,0.6,1.4,1.4V86.1z"/>
            <path stroke-width="5" d="M68.3,6.4H31.7c-4.6,0-8.3,3.7-8.3,8.3v70.6c0,4.6,3.7,8.3,8.3,8.3h36.7c4.6,0,8.3-3.7,8.3-8.3V14.7C76.6,10.1,72.9,6.4,68.3,6.4z"/>
            <path stroke-width="4" d="M68.5,77.8H31.5V22.2h37.1V77.8z"/>
            <line stroke-width="3" x1="44.9" y1="15" x2="55.1" y2="15"/>
        </g>

        <g id="house">
            <polyline stroke-width="5" points="78.6,41.4 78.6,92.9 21.4,92.9 21.4,41.4 "/>
            <polygon stroke-width="3" points="60.1,55.8 60.1,78.6 39.9,78.6 39.9,55.8 "/>
            <line stroke-width="3" x1="39.9" y1="67.2" x2="60.1" y2="67.2"/>
            <line stroke-width="3" x1="50" y1="57.1" x2="50" y2="77.3"/>
            <polyline stroke-width="5" points="64.4,20 64.4,7.1 78.6,7.1 78.6,32.4 "/>
            <polygon stroke-width="5" points="10.9,41.4 50,7.6 89.1,41.5 "/>
        </g>

        <g id="homeinsurance">
            <polyline stroke-width="5" points="62.4,89.2 20.7,89.2 20.7,40.9 74.4,40.9 74.4,52.2 "/>
            <polygon stroke-width="3" points="57,75.7 38,75.7 38,54.4 57,54.4 "/>
            <line stroke-width="3" x1="38" y1="65.1" x2="57" y2="65.1"/>
            <line stroke-width="3" x1="47.5" y1="55.6" x2="47.5" y2="74.6"/>
            <polyline stroke-width="5" points="61,20.8 61,8.7 74.4,8.7 74.4,32.4 "/>
            <polygon stroke-width="5" points="10.9,40.9 47.5,9.1 84.2,40.9 "/>
            <polygon stroke-width="3" points="89.1,93.3 63.7,93.3 63.7,73.1 89.1,73.1 "/>
            <path stroke-width="3" d="M79.7,72.8v-9.4c0-1.8-1.5-3.3-3.3-3.3h0c-1.8,0-3.3,1.5-3.3,3.3v9.4"/>
            <path stroke-width="3" d="M86.4,71.7v-7.9c0-5.9-4.5-10.8-10-10.8h0c-5.5,0-10,4.9-10,10.8v7.9"/>
            <g>
                <circle stroke-width="2" cx="76.4" cy="81.7" r="1.4"/>
                <polygon stroke-width="3" points="75.5,86.6 76.4,82.8 77.3,86.6"/>
            </g>
        </g>

        <g id="car">
            <line stroke-width="3" x1="58.2" y1="49.6" x2="51.2" y2="49.6"/>
            <path stroke-width="4" d="M58.2,24.8"/>
            <line stroke-width="4" x1="43" y1="24.8" x2="34.5" y2="41.2"/>
            <path stroke-width="4" d="M35.9,66.6c0.2-0.7,0.2-1.4,0.2-2.2c0-5.6-4.6-10.2-10.2-10.2s-10.2,4.6-10.2,10.2c0,0.7,0.1,1.5,0.2,2.2"/>
            <path stroke-width="4" d="M86.1,66.8c0.2-0.7,0.2-1.4,0.2-2.2c0-5.6-4.6-10.2-10.2-10.2C70.6,54.4,66,59,66,64.6c0,0.7,0.1,1.5,0.2,2.2"/>
            <path stroke-width="5" d="M34.5,41.2c0,0-15.2-4.2-25,5.6c-6.9,6.9-2.9,19.9-0.9,19.9h6.8c1,4.9,5.3,8.5,10.5,8.5c5.2,0,9.5-3.7,10.5-8.5h29.3 c1,4.9,5.3,8.5,10.5,8.5c5.2,0,9.5-3.7,10.5-8.5c0,0,7.7,1.7,7.7-10.7S89,24.8,79,24.8H39.6"/>
            <path stroke-width="5" d="M79,41.2"/>
            <path stroke-width="3" d="M22.9,67.5c0.8,0.8,1.8,1.3,3,1.3c2.4,0,4.3-1.9,4.3-4.3c0-1.2-0.5-2.3-1.3-3"/>
            <path stroke-width="3" d="M73.2,67.5c0.8,0.8,1.8,1.3,3,1.3c2.4,0,4.3-1.9,4.3-4.3c0-1.2-0.5-2.3-1.3-3"/>
            <line stroke-width="4" x1="58.2" y1="24.8" x2="58.2" y2="41.2"/>
            <line stroke-width="4" x1="79" y1="41.7" x2="34.5" y2="41.7"/>
        </g>

        <g id="keys">
            <path stroke-width="4" d="M73.4,84.4L66,64.5l0,0c2-2.3,3.2-5.3,3.2-8.5c0-7.1-5.8-12.8-12.8-12.8S43.6,48.9,43.6,56c0,6.8,5.2,12.3,11.9,12.8l0,0 c0,0,2.2,5.9,2.6,6.8c0.4,1,3.1,1.3,3.4,2.5c0.4,1.1-1.3,2.7-0.9,3.7c0.4,1,2.2,1.7,2.9,2.3c0.7,0.7-0.8,3.6-0.3,4 c0.5,0.4,8.3,1,9.4-0.3C73.7,86.6,73.4,84.4,73.4,84.4z"/>
            <path stroke-width="4" d="M53.8,43.4"/>
            <path stroke-width="4" d="M66.8,63.4"/>
            <path stroke-width="4" d="M66.8,63.4c0.4-0.1,0.7-0.2,1.1-0.3l0,0c0,0,4.1,4.7,4.8,5.5c0.7,0.8,3.3,0.2,4.1,1.1c0.7,0.9-0.3,3,0.4,3.8 c0.7,0.8,2.7,0.8,3.6,1.2c0.9,0.4,0.5,3.7,1.1,3.9c0.6,0.2,8.1-2,8.7-3.6c0.6-1.6-0.5-3.6-0.5-3.6l-13.8-16l0,0 c1.1-2.8,1.2-6.1,0.1-9.1c-2.5-6.7-9.9-10-16.5-7.6c-2.6,0.9-4.6,2.6-6.1,4.7"/>
            <circle stroke-width="2" cx="54.3" cy="50.9" r="0.9"/>
            <path stroke-width="4" d="M43.2,25.8l0.1-0.3c1.2-3.6-0.8-7.4-4.4-8.6l-16.2-5.3c-3.6-1.2-7.4,0.8-8.6,4.4L9.6,29.9c-1.2,3.6,0.8,7.4,4.4,8.6l16.2,5.3 c3.6,1.2,7.4-0.8,8.6-4.4l0.1-0.3c0.4,0.1,0.9,0.1,1.4,0.1c3.9,0,7.1-3.2,7.1-7.1C47.3,29.4,45.6,26.9,43.2,25.8z"/>
            <path stroke-width="3" d="M46.5,47.4c2,1.6,4.6,3.5,7.3,3.5"/>
            <path stroke-width="3" d="M41.9,39.1c0.3,3.4,2.1,6.3,4.6,8.3"/>
            <path stroke-width="3" d="M65.8,38c-0.2-6.4-5.5-12.1-12-12.1c-2.8,0-5.5,1-7.5,2.6"/>
        </g>

        <g id="padlock">
            <polygon stroke-width="5" points="80.5,91 19.5,91 19.5,49.7 34,49.7 80.5,49.7 "/>
            <path stroke-width="5" d="M73,49.7V32.1C73,19.4,62.7,9,50,9s-23,10.3-23,23v17.6"/>
            <path stroke-width="5" d="M58,49.7V31.3c0-4.4-3.6-8-8-8s-8,3.6-8,8v18.4"/>
            <circle stroke-width="5" cx="50" cy="66.2" r="2"/>
            <polyline stroke-width="5" points="50,69.2 53.2,76.4 46.8,76.4 50,69.2 "/>

        </g>

        <g id="windscreen">
            <line stroke-width="5" x1="84.5" y1="30.5" x2="90.7" y2="62.9"/>
            <line stroke-width="5" x1="15.5" y1="30.5" x2="9.3" y2="62.9"/>
            <path stroke-width="5" d="M15.5,30.5c0,0,14.3-4.5,34.5-4.5s34.5,4.5,34.5,4.5"/>
            <path stroke-width="5" d="M90.7,62.9c0,0-1.8,1.2-40.7,1.2S9.3,62.9,9.3,62.9"/>
            <line stroke-width="3" x1="46.7" y1="33.3" x2="53.3" y2="33.3"/>
            <circle stroke-width="2" cx="50" cy="72" r="2"/>
            <line stroke-width="3" x1="50" y1="72.1" x2="78.9" y2="43.2"/>
            <circle stroke-width="2" cx="38" cy="72" r="2"/>
            <line stroke-width="3" x1="38" y1="72.1" x2="66.9" y2="43.2"/>
        </g>

        <g id="clock">
            <circle stroke-width="5" cx="50" cy="50" r="40"/>
            <circle stroke-width="4" cx="50" cy="50" r="2.3"/>
            <line stroke-width="4" x1="28" y1="37.3" x2="50" y2="50"/>
            <line stroke-width="4" x1="73.1" y1="26.9" x2="50" y2="50"/>
        </g>

        <g id="pdf">
            <polygon stroke-width="5" points="56,10 20,10 20,90 80,90 80,34 56,34 "/>
            <line stroke-width="5" x1="56" y1="10" x2="80" y2="34"/>
            <path stroke-width="3" d="M45.6,65.9h4.7c2.8,0,5.1,2.3,5.1,5.1v4.4c0,2.8-2.3,5.1-5.1,5.1h-4.7 M45.6,80.5V65.9"/>
            <path stroke-width="3" d="M62,73.2h7.5 M62,65.9h9.1 M62,80.5V65.9"/>
            <path stroke-width="3" d="M28.9,80.6V65.8 M28.9,65.8L28.9,65.8 M28.9,73.2h6.9c1.9,0,3.5-1.6,3.5-3.5v-0.4c0-1.9-1.6-3.5-3.5-3.5h-6.9"/>
        </g>

        <g id="uklicence">
            <polygon stroke-width="5" points="92.9,78.8 25.9,78.8 25.9,33.1 92.9,33.1 "/>
            <polyline stroke-width="5" points="25.9,66.9 7.1,66.9 7.1,21.2 74.1,21.2 74.1,33.1"/>
            <line stroke-width="3" x1="33.4" y1="21.2" x2="33.4" y2="33.1"/>
            <line stroke-width="3" x1="47.8" y1="21.2" x2="47.8" y2="33.1"/>
            <line stroke-width="3" x1="25.9" y1="36.8" x2="7.1" y2="36.8"/>
            <line stroke-width="3" x1="25.9" y1="51.3" x2="7.1" y2="51.3"/>
            <line stroke-width="3" x1="11.9" y1="21.2" x2="29.3" y2="33.1"/>
            <line stroke-width="3" x1="7.1" y1="24.5" x2="25.9" y2="37.3"/>
            <line stroke-width="3" x1="11.9" y1="66.9" x2="25.9" y2="57.4"/>
            <line stroke-width="3" x1="7.1" y1="63.7" x2="25.9" y2="50.9"/>
            <line stroke-width="3" x1="69.3" y1="21.2" x2="52" y2="33.1"/>
            <line stroke-width="3" x1="74.1" y1="24.5" x2="61.5" y2="33.1"/>
            <line stroke-width="3" x1="34.4" y1="48.6" x2="50.5" y2="48.6"/>
            <line stroke-width="3" x1="34.4" y1="55.9" x2="50.5" y2="55.9"/>
            <line stroke-width="3" x1="34.4" y1="63.2" x2="50.5" y2="63.2"/>
            <circle stroke-width="4" cx="70.1" cy="49.2" r="7.9"/>
            <path stroke-width="4" d="M70.1,57.1c-7.4,0-13.5,6-13.6,13.4h27.2C83.6,63.1,77.5,57.1,70.1,57.1z"/>
        </g>

        <g id="barchart">
            <polygon stroke-width="4" points="80.5,74.8 67.5,74.8 67.5,32 80.5,32"/>
            <polygon stroke-width="4" points="59.4,74.8 46.4,74.8 46.4,45.2 59.4,45.2"/>
            <polygon stroke-width="4" points="38.2,74.8 25.2,74.8 25.2,24 38.2,24"/>
            <path stroke-width="5" d="M87.2,82.8L87.2,82.8l-70,0v-70h0c0-2.4-2-4.4-4.4-4.4c-2.4,0-4.4,2-4.4,4.4h0v74.4h0c0,2.4,2,4.4,4.4,4.4v0l74.4,0v0 c2.4,0,4.4-2,4.4-4.4S89.6,82.8,87.2,82.8z"/>
        </g>

        <g id="broadband">
            <path stroke-width="5" d="M85.4,54.6H14.6c-3.3,0-6,2.7-6,6v7.6c0,3.3,2.7,6,6,6h70.8c3.3,0,6-2.7,6-6v-7.6C91.4,57.3,88.7,54.6,85.4,54.6z"/>
            <path stroke-width="5" d="M36,40.3c8.3-6.1,19.6-6.1,28,0"/>
            <path stroke-width="5" d="M24.4,33c15.2-11.1,35.9-11.1,51.1,0"/>
            <path stroke-width="5" d="M14.2,25.8c21.3-15.5,50.2-15.5,71.6,0"/>
        </g>

        <g id="moneybag">
            <line stroke-width="5" x1="34.6" y1="29.2" x2="65.4" y2="29.2"/>
            <path stroke-width="5" d="M68.9,11.2c-4.5-2.5-10.2,0.3-10.2,0.3s-4-5.2-8.8-5.2s-8.8,5.2-8.8,5.2s-5.7-2.8-10.2-0.3c-4.5,2.5-3.4,6.7-3.4,6.7 s9.8,6.3,9.8,11.2H50h12.5c0-5,9.8-11.2,9.8-11.2S73.4,13.7,68.9,11.2z"/>
            <polygon stroke-width="5" points="50,6.3 50,6.3 50,6.3"/>
            <line stroke-width="3" x1="50" y1="29.2" x2="50" y2="37.2"/>
            <line stroke-width="3" x1="44.9" y1="29.2" x2="41.3" y2="37.2"/>
            <line stroke-width="3" x1="47.9" y1="29.2" x2="44.6" y2="20.3"/>
            <line stroke-width="3" x1="55.1" y1="29.2" x2="58.7" y2="37.2"/>
            <line stroke-width="3" x1="52.1" y1="29.2" x2="55.4" y2="20.3"/>
            <path stroke-width="5" d="M50,29.2c17.5,0,40.1,17.6,40.1,35.3c0,19.4-20,29.2-40.1,29.2c-20,0-40.1-9.8-40.1-29.2C9.9,46.8,32.5,29.2,50,29.2z"/>
            <line stroke-width="5" x1="59.2" y1="74.9" x2="41.5" y2="74.9"/>
            <line stroke-width="5" x1="55.9" y1="63.5" x2="41.5" y2="63.5"/>
            <path stroke-width="5" d="M45.3,74.9V57.7c0,0,0-7.7,6.7-7.7c4.4,0,5.9,2.1,5.9,2.1"/>
        </g>

        <g id="piggybank">
            <path stroke-width="5" d="M48.9,28.6c-3.8,0.3-6.6,0.7-7.3,0.8c-1.6,0.3-12,2.5-14.9,3.2S18,34.1,18,34.1l4.9,6.7l-2.8,9.7c-2.5,3.6-9.9,3.6-9.9,3.6 c-2.4,2.9-2,9-2,9c5.9,7,24.3,12,24.3,12l1.1,8.2c0,0,0.5,3.5,5.3,3.8c5.3,0.4,6.1-2.6,6.1-2.6l1.6-8.5c15.4,3.2,23.6,0.1,23.6,0.1 s0.8,4.1,0.8,6.5c0,4.2,3.3,4.5,3.3,4.5h4.4c0,0,1.6-0.1,4.4-3.8c4.7-6.2,7.1-16.2,7.1-16.2c3.3-14.3,0.9-21.9-3.2-27.4 c-4-5.4-9-7.7-16.5-9.5"/>
            <circle stroke-width="3" cx="30.2" cy="50.2" r="1"/>
            <path stroke-width="3" d="M47.2,36.8c8.1-0.7,16.1-0.1,23.9,1.7"/>
            <circle stroke-width="4" cx="60.2" cy="24.2" r="11.3"/>
            <path stroke-width="3" d="M54.6,24.8c0.7,3.1,3.3,5.1,6.4,5"/>
        </g>

        <g id="umbrella">
            <path stroke-width="5" d="M82.2,87.1c0,0,21.7-30.9-6.8-59.5s-60.3-7-60.3-7s10.4,1.4,16.1,7.1S38,42.5,38,42.5s10.2,2,15.2,6.9s7.1,15.5,7.1,15.5 s9.3,1.4,14.7,6.8C80.3,77,82.2,87.1,82.2,87.1z"/>
            <path stroke-width="5" d="M78.8,31.4l4.5-4.5c2-2,2-5.2,0-7.2c-2-2-5.2-2-7.2,0l-4.5,4.5C72.8,25.3,77.7,30.1,78.8,31.4z"/>
            <path stroke-width="5" d="M49.3,46.5L27.3,68.4l0,0c-1.6,1.6-4.3,1.6-6,0c-1.5-1.5-1.6-4-0.3-5.6c0.1-0.1,0.2-0.2,0.3-0.3c2-2,2-5.2,0-7.3 c-2-2-5.2-2-7.3,0h0c-5.6,5.6-5.6,14.8,0,20.4c5.6,5.6,14.8,5.6,20.4,0l21.8-21.8C55.5,52.2,50.7,47.3,49.3,46.5z"/>
            <path stroke-width="4" d="M60.3,64.9c0,0,7-6.4,11.3-14.7c4.2-8.3,3.8-22.5,3.8-22.5"/>
            <path stroke-width="4" d="M38,42.5c0,0,7.5-6.7,15.4-10.7s21.9-4.1,21.9-4.1"/>
        </g>

        <g id="suitcase">
            <path stroke-width="4" d="M91.4,79.2 c0,3.7-3,6.7-6.7,6.7H15.3c-3.7,0-6.7-3-6.7-6.7v-45c0-3.7,3-6.7,6.7-6.7h69.4c3.7,0,6.7,3,6.7,6.7V79.2z"/>
            <path stroke-width="4" d="M60.4,27.5H39.6v-6.9 c0-3.6,3-6.6,6.6-6.6h7.7c3.6,0,6.6,3,6.6,6.6V27.5z"/>
            <polygon stroke-width="3" points="29.7,63.1 22.6,63.1 22.6,52.4 29.7,52.4"/>
            <polygon stroke-width="3" points="77.4,63.1 70.3,63.1 70.3,52.4 77.4,52.4"/>
            <line stroke-linecap="square" stroke-width="5" x1="26.2" y1="29.5" x2="26.2" y2="51.4"/>
            <line stroke-linecap="square" stroke-width="5" x1="26.2" y1="64.1" x2="26.2" y2="85"/>
            <line stroke-linecap="square" stroke-width="5" x1="73.8" y1="29.5" x2="73.8" y2="51.4"/>
            <line stroke-linecap="square" stroke-width="5" x1="73.8" y1="64.1" x2="73.8" y2="85"/>
        </g>

        <g id="travelinsurance">
            <polygon stroke-width="3" points="86,88.3 57.7,88.3 57.7,65.8 71.8,65.8 86,65.8 "/>
            <path stroke-width="3" d="M75.5,65.8V54.9 c0-2-1.6-3.7-3.7-3.7h0c-2,0-3.7,1.6-3.7,3.7v10.9"/>
            <path stroke-width="3" d="M82.9,65.8V55.4 c0-6.6-5-12-11.1-12h0c-6.1,0-11.1,5.4-11.1,12v10.4"/>
            <circle stroke-width="2" cx="71.8" cy="75.5" r="1.4"/>
            <polygon stroke-width="3" points="71,80.4 71.8,76.6 72.7,80.4"/>
            <path stroke-linecap="square" stroke-width="4" d="M56.7,83.6H15.3 c-3.7,0-6.7-3-6.7-6.7v-45c0-3.7,3-6.7,6.7-6.7h69.4c3.7,0,6.7,3,6.7,6.7l0,45c0,2.9-1.8,5.4-4.4,6.3h-0.5"/>
            <path stroke-width="4" d="M39.6,25.2v-6.9 c0-3.6,3-6.6,6.6-6.6h7.7c3.6,0,6.6,3,6.6,6.6v6.9"/>
            <polygon stroke-width="3" points="31.7,59.7 24.6,59.7 24.6,49.1 26.3,49.1 31.7,49.1 "/>
            <line stroke-linecap="square" stroke-width="5" x1="28.2" y1="27.2" x2="28.2" y2="47.1"/>
            <line stroke-linecap="square" stroke-width="5" x1="28.2" y1="62.7" x2="28.2" y2="81.6"/>
            <line stroke-linecap="square" stroke-width="5" x1="71.8" y1="27.2" x2="71.8" y2="41"/>
            <path stroke-width="4" d="M40.3,83.6"/>
        </g>

        <g id="currentaccount">
            <path stroke-width="5" d="M84.5,67.5v12.8c0,2.4-1.9,4.3-4.3,4.3H15.5c-2.4,0-4.3-1.9-4.3-4.3V23.2"/>
            <path stroke-width="5" d="M79.7,23.2L79.7,23.2c0-4.3-3.5-7.8-7.8-7.8h-53c-4.3,0-7.8,3.5-7.8,7.8v0c0,4.3,3.5,7.8,7.8,7.8h61.2c2.4,0,4.3,1.9,4.3,4.3v12.6"/>
            <line stroke-width="5" x1="79.7" y1="23.2" x2="79.7" y2="30.9"/>
            <polyline stroke-width="4" points="72.7,30.2 72.7,21.9 18.6,21.9 18.6,30.2"/>
            <path stroke-width="5" d="M72.5,66.1c-4.5,0-8.2-3.7-8.2-8.2s3.7-8.2,8.2-8.2h16.3v16.5H72.5z"/>
            <circle stroke-width="2" cx="72.9" cy="57.8" r="3"/>
        </g>

        <g id="petinsurance">
            <ellipse transform="matrix(0.7271 0.6865 -0.6865 0.7271 59.2968 -39.8562)" stroke-width="5" cx="79.8" cy="54.7" rx="9.4" ry="13.3"/>
            <ellipse transform="matrix(0.8719 0.4896 -0.4896 0.8719 23.7325 -28.5578)" stroke-width="5" cx="66.5" cy="31.1" rx="9.4" ry="13.3"/>
            <ellipse transform="matrix(0.9996 2.766566e-02 -2.766566e-02 0.9996 0.6327 -1.1468)" stroke-width="5" cx="41.8" cy="22.3" rx="9.4" ry="13.3"/>
            <ellipse transform="matrix(0.9924 -0.1227 0.1227 0.9924 -4.2824 2.5166)" stroke-width="5" cx="18.3" cy="36" rx="9.4" ry="13.3"/>
            <path stroke-width="5" d="M17.3,74.2c-2.4-4.5,3.6-13.1,8.1-17c2.7-2.3,7.7-6.2,15.6-6.1c7,0.1,12,3.6,13.7,5C62,62.2,64.8,72,63.4,80.8c0,0-1.2,9-6.2,10.1 c-4.1,0.9-8.2-2.9-10.8-5.1c-3.1-2.6-4.5-3.9-7.4-5c-3.5-1.4-5.4-1.6-9.6-2.2C22.6,77.7,18.8,77,17.3,74.2z"/>
        </g>

        <g id="lifeinsurance">
            <path stroke-width="5" d="M50,23c-1.2-1.1-8-7.3-17.5-6.5c-10.5,1-19.1,10.1-20,20.2c-0.6,7.5,1.5,12,4.5,15L50,85.6"/>
            <line stroke-width="5" x1="83" y1="51.8" x2="50" y2="85.6"/>
            <path stroke-width="5" d="M50,23"/>
            <polyline stroke-width="5" points="37.1,45.7 50,57.8 93.3,14.4"/>
            <path stroke-width="5" d="M86.7,32.8c0.4,1.3,0.6,2.6,0.7,3.9c0.6,7.5-1.5,12-4.5,15"/>
            <path stroke-width="5" d="M50,23c1.2-1.1,8-7.3,17.5-6.5c3.3,0.3,6.4,1.4,9.1,3.1"/>
            <path stroke-width="5" d="M50,23"/>
            <path stroke-width="5" d="M6.7,14.4"/>
            <path stroke-width="5" d="M50,57.8"/>
            <path stroke-width="5" d="M50,23"/>
            <line stroke-width="5" x1="50" y1="23" x2="41" y2="32"/>
        </g>

        <g id="flame">
            <path stroke-width="5" d="M40.4,89.9c0,0-18.9-8.5-18.9-23.2c0-22.9,22.7-41.5,22.7-57.2c0,0,34.4,29.8,34.4,48.8c0.4,10.8-1.9,14.8-4.3,18.9 S61,90.5,58,90.5c-1.1,0,10.6-11,10.6-24c-0.1-17.8-14.9-29.2-14.9-29.2c0,19.8-6.8,28.2-6.8,28.2c0-6.4-5.7-12.4-5.7-12.4 c0,5.2-6.9,14.1-6.9,20.1C34.2,83.9,40.4,89.9,40.4,89.9z"/>
        </g>

        <g id="mouse">
            <path stroke-width="5" d="M50.2,93.3h-0.5c-13,0-23.5-10.5-23.5-23.5V45.8c0-13,10.5-23.5,23.5-23.5h0.5c13,0,23.5,10.5,23.5,23.5v24.1 C73.8,82.8,63.2,93.3,50.2,93.3z"/>
            <line stroke-width="5" x1="27.8" y1="45.7" x2="72.2" y2="45.7"/>
            <line stroke-width="5" x1="50" y1="39.1" x2="50" y2="52.3"/>
            <path stroke-width="5" d="M70.5,7c0,0-10.9-2.1-16.8,3.8C49.4,15.1,50,22.2,50,22.2"/>
        </g>

        <g id="male">
            <path stroke-width="5" d="M68.8,28.2c0,9.7-8.4,17.6-18.8,17.6c-10.4,0-18.8-7.9-18.8-17.6c0-9.7,8.4-17.6,18.8-17.6C60.4,10.6,68.8,18.5,68.8,28.2z"/>
            <path stroke-width="5" d="M65.7,39.5"/>
            <path stroke-width="5" d="M67.9,50.5c10.3,5.8,19.9,18.6,21.8,31.7c0,0,1.1,7.2-5.1,7.2H50H15.4c-6.2,0-5.1-7.2-5.1-7.2c1.9-13.1,11.5-25.8,21.8-31.7 C32.1,50.5,49.1,40.1,67.9,50.5z"/>
            <line stroke-width="5" x1="28.5" y1="74.1" x2="28.5" y2="87.1"/>
            <line stroke-width="5" x1="71.2" y1="73.5" x2="71.2" y2="86.6"/>
        </g>
        <g id="nav">
            <path d="M68.8,28.2c0,9.7-8.4,17.6-18.8,17.6c-10.4,0-18.8-7.9-18.8-17.6c0-9.7,8.4-17.6,18.8-17.6C60.4,10.6,68.8,18.5,68.8,28.2z"/>
            <path d="M65.7,39.5"/>
            <path d="M67.9,50.5c10.3,5.8,19.9,18.6,21.8,31.7c0,0,1.1,7.2-5.1,7.2H50H15.4c-6.2,0-5.1-7.2-5.1-7.2c1.9-13.1,11.5-25.8,21.8-31.7 C32.1,50.5,49.1,40.1,67.9,50.5z"/>
            <line x1="28.5" y1="74.1" x2="28.5" y2="87.1"/>
            <line x1="71.2" y1="73.5" x2="71.2" y2="86.6"/>
        </g>

        <g id="box">
            <path stroke-width="5" d="M13.2,34.1v32.1c0,3,1.6,5.8,4.2,7.3l28.3,16.3c2.6,1.5,5.9,1.5,8.5,0l28.3-16.3c2.6-1.5,4.2-4.2,4.2-7.3V33.8 c0-3-1.6-5.8-4.2-7.3L54.2,10.3c-1.3-0.7-2.8-1.1-4.2-1.1c-1.5,0-2.9,0.4-4.2,1.1l-28,16.1c-2.7,1.4-4.5,4.2-4.5,7.4 C13.2,33.9,13.2,34.1,13.2,34.1z"/>
            <line stroke-width="5" x1="50" y1="90.9" x2="50" y2="50.6"/>
            <polyline stroke-width="5" points="85.8,29.9 50,50.6 14.2,29.9"/>
            <line stroke-width="4" x1="31.2" y1="18.6" x2="68.3" y2="40.1"/>
        </g>

        <g id="cog">
            <path stroke-width="5" d="M88.2,48.6c-2.3-1.3-4.5-2.5-6.8-3.7c-1-0.5-1.5-2.6-0.8-3.5c1.4-2,2.9-4.1,4.4-6.1c1.2-1.7,1.2-2.9-0.1-4.6 c-2.7-3.4-5.4-6.8-8.1-10.2c-1.3-1.6-2.5-1.9-4.4-1.1c-2.3,1-4.6,1.9-6.9,2.9c-1,0.4-3-0.5-3.3-1.6c-0.7-2.3-1.3-4.6-2-6.9 c-0.6-2.1-1.5-2.8-3.7-2.8c-4.3,0-8.6,0-12.9,0c-2.1,0-3,0.7-3.6,2.7c-0.7,2.3-1.3,4.6-2,6.9c-0.4,1.3-2.3,2.2-3.5,1.6 c-2.3-1-4.6-1.9-6.9-2.9c-1.9-0.8-3.1-0.4-4.3,1.2c-2.7,3.4-5.4,6.7-8,10.1c-1.2,1.5-1.3,2.9-0.2,4.5c1.4,2,2.9,4,4.3,6 c0.8,1.1,0.4,3.1-0.8,3.8c-2,1.1-4.1,2.3-6.1,3.3c-1.2,0.6-2.1,1.5-2.4,2.8v0.8c0.8,3.4,1.6,6.8,2.4,10.1 c0.3,1.2,0.5,2.4,0.8,3.5c0.4,1.6,1.3,2.4,2.9,2.6c2.7,0.2,5.4,0.3,8.2,0.5c1.1,0.1,2.3,1.8,2.1,2.9c-0.4,2.4-0.9,4.9-1.3,7.4 c-0.3,1.9,0.3,3.1,2,4c4,1.9,8,3.8,12,5.8c0.3,0.2,0.7,0.3,1.1,0.5h1c1.1-0.3,1.9-1,2.6-1.8c1.5-1.8,3-3.4,4.6-5.2 c0.9-1,2.8-1,3.7,0c1.5,1.7,3,3.5,4.6,5.1c0.7,0.8,1.7,1.3,2.5,1.9h1c4.5-2.1,8.9-4.2,13.4-6.4c1.4-0.7,1.9-2,1.7-3.5 c-0.5-2.6-0.9-5.3-1.4-7.9c-0.1-0.7,1.2-2.5,1.9-2.5c1.9-0.1,3.8-0.2,5.7-0.4c0.5,0,1.1,0,1.6,0c2.8-0.1,3.6-0.8,4.2-3.6 c0.9-4.1,1.9-8.2,2.8-12.3C90.3,50.6,89.8,49.4,88.2,48.6z"/>
            <path stroke-width="5" d="M50.1,37.5c-6.8-0.1-12.6,5.5-12.8,12.3c-0.2,7.1,5.6,13,12.6,13c7,0,12.7-5.6,12.7-12.6C62.6,42.9,56.9,37.6,50.1,37.5z"/>
        </g>

        <g id="bin">
            <path stroke-width="5" d="M66.8,87.2H33.2c-3.8,0-6.9-3.1-6.9-6.9L24,33.2h52l-2.3,47.1C73.7,84.1,70.6,87.2,66.8,87.2z"/>
            <line stroke-width="4" x1="59.8" y1="46.9" x2="59.8" y2="73.5"/>
            <line stroke-width="4" x1="40.2" y1="46.9" x2="40.2" y2="73.5"/>
            <line stroke-width="4" x1="50" y1="46.9" x2="50" y2="73.5"/>
            <line stroke-width="5" x1="22.4" y1="23.8" x2="77.6" y2="23.8"/>
            <path stroke-width="5" d="M61,23.8H39c0-6.1,4.9-11,11-11S61,17.8,61,23.8z"/>
        </g>

        <g id="edit">
            <path stroke-width="5" d="M84.4,21.6l-6-6c-1.6-1.5-4-1.5-5.5,0l-42,42l-6.4,17.9L42.5,69l42-42C85.9,25.6,85.9,23.2,84.4,21.6z"/>
            <line stroke-width="3" x1="31" y1="57.5" x2="42.5" y2="69"/>
            <line stroke-width="2" x1="67.1" y1="21.4" x2="78.6" y2="32.9"/>
            <line stroke-width="2" x1="64.1" y1="24.4" x2="75.6" y2="35.9"/>
            <polyline stroke-width="5" points="79.2,53.2 79.2,85.6 14.4,85.6 14.4,20.8 46.8,20.8"/>
        </g>

        <g id="edit2">
            <path stroke-width="5" d="M84.3,22.8l-7-7c-1.8-1.7-4.6-1.7-6.4,0L21.9,64.7l-7.5,20.9l20.9-7.5l48.9-48.9C86,27.4,86,24.6,84.3,22.8z"/>
            <line stroke-width="4" x1="21.9" y1="64.7" x2="35.3" y2="78.1"/>
            <line stroke-width="3" x1="64" y1="22.6" x2="77.4" y2="36"/>
            <line stroke-width="3" x1="60.5" y1="26" x2="74" y2="39.5"/>
        </g>

        <g id="phone">
            <path stroke-width="5" d="M9.3,18.2c0.1-0.4,0.5-0.8,0.9-0.9l20.3-8c0.9-0.3,1.8,0.1,2.2,0.9l11.2,22.3c0.4,0.7,0.2,1.4-0.3,2L32.6,45.3 c5.6,9,13.2,16.7,22.1,22.2l10.9-11c0.6-0.5,1.3-0.7,2-0.3l22.3,11.2c0.8,0.4,1.1,1.3,0.9,2.2l-8,20.3c-0.2,0.4-0.5,0.8-0.9,0.9 c-0.2,0.1-1,0.1-1.3,0C43.3,86.2,13.8,56.7,9.2,19.5C9.1,19.3,9.2,18.4,9.3,18.2z"/>
            <path stroke-width="4" d="M60.8,61.4l27.8,13.9 M23.9,11.8l14,28.2"/>
        </g>

        <g id="bulb">
            <path stroke-width="5" d="M61,67.7C61,52.9,73.9,52,76.4,30.3C77.9,6.3,51.7,6.5,50,6.5"/>
            <path stroke-width="5" d="M50,6.5c-1.7,0-27.8-0.2-26.3,23.9C26.1,52,39,52.9,39,67.7"/>
            <path stroke-width="5" d="M39.8,67.4v15c0,3.5,3.2,6.3,7.2,6.3h5.7c4,0,7.2-2.8,7.2-6.3V67.7 M61.2,67.1l-0.5,0.2v-0.1H39.5v0.4l-1.2-0.5 M43,68.9"/>
            <line stroke-width="2" x1="39.8" y1="73.3" x2="60" y2="73.3"/>
            <line stroke-width="2" x1="39.8" y1="78.1" x2="60" y2="78.1"/>
            <line stroke-width="2" x1="39.8" y1="82.9" x2="60" y2="82.9"/>
            <path stroke-width="3" d="M54.7,90.8c0,1.5-2.1,2.8-4.7,2.8s-4.7-1.2-4.7-2.8"/>
            <path stroke-width="3" d="M30.6,26.7c0,0,0-9,11-12"/>
        </g>

        <g id="bank">
            <path stroke-width="5" d="M86.5,76H13.5c-1.6,0-3,1.3-3,3v7.8c0,1.7,1.4,3,3,3h73.1c1.7,0,3-1.3,3-3V79C89.5,77.4,88.2,76,86.5,76z"/>
            <path stroke-width="5" d="M50,39.3H15.8c0,0-5.3,0.4-5.3-4.3c0-3.8,0-8.9,0-8.9l39.5-16"/>
            <path stroke-width="5" d="M50,39.3h34.2c0,0,5.3,0.4,5.3-4.3c0-3.8,0-8.9,0-8.9L50,10.1"/>
            <circle stroke-width="3" cx="50" cy="25.9" r="4.7"/>
            <line stroke-width="5" x1="56.5" y1="39.9" x2="56.5" y2="75.8"/>
            <line stroke-width="5" x1="43.5" y1="75.8" x2="43.5" y2="39.9"/>
            <line stroke-width="5" x1="18.2" y1="75.8" x2="18.2" y2="39.9"/>
            <line stroke-width="5" x1="31.1" y1="39.9" x2="31.1" y2="75.8"/>
            <line stroke-width="5" x1="81.3" y1="39.9" x2="81.3" y2="75.8"/>
            <line stroke-width="5" x1="68.4" y1="75.8" x2="68.4" y2="39.9"/>
        </g>


        <g id="loans">
            <line stroke-width="5" x1="17" y1="82.6" x2="17" y2="21.8"/>
            <line stroke-width="5" x1="43.1" y1="21.8" x2="43.1" y2="32.7"/>
            <path stroke-width="5" d="M17,21.8c0-2.7,5.8-4.9,13-4.9s13,2.2,13,4.9"/>
            <path stroke-width="5" d="M43.1,21.8c0,2.7-5.8,4.9-13,4.9s-13-2.2-13-4.9"/>
            <path stroke-width="4" d="M43.1,31.9c0,2.7-5.8,4.9-13,4.9s-13-2.2-13-4.9"/>
            <path stroke-width="4" d="M37.4,45.9c-2.1,0.5-4.6,0.9-7.4,0.9c-7.2,0-13-2.2-13-4.9"/>
            <path stroke-width="4" d="M37,56c-2,0.5-4.4,0.8-7,0.8c-7.2,0-13-2.2-13-4.9"/>
            <path stroke-width="4" d="M36.7,66c-1.9,0.4-4.2,0.7-6.6,0.7c-7.2,0-13-2.2-13-4.9"/>
            <path stroke-width="4" d="M36.8,76c-2,0.4-4.3,0.7-6.7,0.7c-7.2,0-13-2.2-13-4.9"/>
            <path stroke-width="5" d="M36.3,86.9c-1.8,0.4-4,0.6-6.2,0.6c-7.2,0-13-2.2-13-4.9"/>
            <path stroke-width="5" d="M56.9,82.6"/>
            <line stroke-width="5" x1="83" y1="11.2" x2="83" y2="82.6"/>
            <path stroke-width="4" d="M83,31.9c0,2.7-5.8,4.9-13,4.9s-13-2.2-13-4.9"/>
            <path stroke-width="5" d="M56.9,11.2c0-2.7,5.8-4.9,13-4.9s13,2.2,13,4.9"/>
            <path stroke-width="4" d="M83,21.8c0,2.7-5.8,4.9-13,4.9s-13-2.2-13-4.9"/>
            <path stroke-width="5" d="M83,11.2c0,2.7-5.8,4.9-13,4.9s-13-2.2-13-4.9"/>
            <path stroke-width="4" d="M83,41.9c0,2.7-5.8,4.9-13,4.9c-2.6,0-5-0.3-7-0.8"/>
            <path stroke-width="4" d="M83,51.8c0,2.7-5.8,4.9-13,4.9c-2.5,0-4.8-0.3-6.7-0.7"/>
            <path stroke-width="4" d="M83,61.8c0,2.7-5.8,4.9-13,4.9c-2.7,0-5.2-0.3-7.3-0.8"/>
            <path stroke-width="4" d="M83,71.8c0,2.7-5.8,4.9-13,4.9c-2.7,0-5.2-0.3-7.3-0.8"/>
            <path stroke-width="5" d="M83,82.6c0,2.7-5.8,4.9-13,4.9c-2.2,0-4.2-0.2-6-0.6"/>
            <line stroke-width="5" x1="56.9" y1="11.2" x2="56.9" y2="32.7"/>
            <line stroke-width="5" x1="37" y1="88.8" x2="37" y2="38.6"/>
            <line stroke-width="5" x1="63" y1="38.6" x2="63" y2="88.8"/>
            <line stroke-width="5" x1="37" y1="38.6" x2="37" y2="88.8"/>
            <path stroke-width="5" d="M37,38c0-2.7,5.8-4.9,13-4.9s13,2.2,13,4.9"/>
            <path stroke-width="5" d="M63,38c0,2.7-5.8,4.9-13,4.9S37,40.7,37,38"/>
            <path stroke-width="4" d="M63,48.1c0,2.7-5.8,4.9-13,4.9s-13-2.2-13-4.9"/>
            <path stroke-width="4" d="M63,58.1c0,2.7-5.8,4.9-13,4.9s-13-2.2-13-4.9"/>
            <path stroke-width="4" d="M63,68.1c0,2.7-5.8,4.9-13,4.9s-13-2.2-13-4.9"/>
            <path stroke-width="4" d="M63,78.1c0,2.7-5.8,4.9-13,4.9s-13-2.2-13-4.9"/>
            <path stroke-width="5" d="M63,88.8c0,2.7-5.8,4.9-13,4.9s-13-2.2-13-4.9"/>
        </g>

        <g id="creditcards">
            <path stroke-width="5" d="M69.4,83.2H15.1c-3.3,0-6-2.7-6-6V47.5c0-3.3,2.7-6,6-6h54.4c3.3,0,6,2.7,6,6v29.7C75.4,80.5,72.8,83.2,69.4,83.2z"/>
            <path stroke-width="5" d="M25.7,40.5V22.8c0-3.3,2.7-6,6-6H86c3.3,0,6,2.7,6,6v29.7c0,3.3-2.7,6-6,6H75.4"/>
            <line stroke-linecap="square" stroke-width="5" x1="10" y1="55.8" x2="74.5" y2="55.8"/>
            <line stroke-linecap="square" stroke-width="5" x1="10" y1="58" x2="74.5" y2="58"/>
            <line stroke-width="4" x1="9.1" y1="67" x2="17.5" y2="67"/>
            <line stroke-width="4" x1="75.4" y1="44" x2="81.6" y2="44"/>
            <path stroke-width="3" d="M82.6,24H75c-1.1,0-2,0.9-2,2v4.8c0,1.1,0.9,2,2,2h7.6c1.1,0,2-0.9,2-2V26C84.6,24.9,83.8,24,82.6,24z"/>
        </g>

        <g id="merge">
            <path stroke-width="5" d="M31.1,39.7c-2.5-1.7-5.3-2.5-8.3-2.5c-4.1,0-8.1,0-12.2,0c-0.7,0-0.9-0.1-0.9-0.9c0-3.7,0-7.3,0-11c0-0.7,0.1-0.9,0.9-0.9 c4,0,8,0,12,0c7.1,0,13.3,2.1,18.7,6.8c0.2,0.2,0.5,0.4,0.8,0.6c0.3,0.3,0.7,0.6,1,1c1.9,1.9,3.7,3.9,5.8,5.6 c0.3,0.4,0.7,0.8,1.2,1c0.1,0.1,0.2,0.2,0.3,0.3c3.7,3.1,8.1,4.2,12.8,3.8c0.4,0,0.8,0,1.2,0c1.9,0,3.8,0,6,0 c-1.7-1.7-3.3-3.3-4.9-4.8c-0.6-0.6-1.2-1.2-1.8-1.8c-0.6-0.6-0.9-1.2-0.5-2c0.3-0.7,0.9-1,1.7-1c1.2,0,2.3,0,3.5,0 c0.5,0,0.9,0,1.4,0c1.1,0,2.2,0.1,3.3,0.1c2,0,3.7,1,5.1,2.4c0.2,0.3,0.5,0.6,0.8,0.8c0.9,1,1.9,2,3,3c0.3,0.3,0.6,0.6,0.8,0.8 c0.9,1,1.8,1.9,2.8,2.8c0.3,0.3,0.5,0.5,0.8,0.8c1,1,1.9,1.9,2.9,2.9c1.5,1.6,1.6,3.4,0,4.9c-3.8,3.9-7.7,7.7-11.6,11.6 c-1.3,1.3-2.9,2-4.7,2c-2.7,0-5.3-0.1-8,0c-0.8,0-1.4-0.2-1.8-1c-0.3-0.8,0-1.3,0.5-1.9c2.2-2.2,4.3-4.3,6.7-6.6 c-2.1,0-3.9,0-5.8,0c-0.3,0-0.7,0-1,0c-1.3,0-2.6-0.1-3.9,0c-3.3,0.1-6.3,1.3-8.9,3.3c-3.1,2.4-5.8,5.4-8.6,8.2 c-0.3,0.1-0.5,0.3-0.6,0.5c-1.7,1.3-3.4,2.6-5.3,3.7c-1.3,0.7-2.7,1.3-4.1,1.9c-0.6,0.2-1.2,0.3-1.8,0.5c-0.5,0.1-1,0.2-1.5,0.3 c-1.2,0.2-2.4,0.4-3.7,0.6c-0.2,0-0.4,0-0.6,0c-1.9,0-3.7,0-5.6,0c-0.4,0-0.8,0-1.2,0c-2.3,0-4.7-0.1-7,0c-1,0-1.4-0.2-1.2-1.2 c0-0.2,0-0.4,0-0.6c0-0.3,0-0.7,0-1c0-1.1,0-2.1,0-3.2c0-0.4,0-0.8,0-1.2c0-1.4,0-2.8,0-4.2c0-0.4,0-0.8,0-1.2 c0.1-0.2,0.3-0.2,0.4-0.2c0.4,0,0.8,0,1.2,0c1.7,0,3.3,0,5,0c2.4,0,4.8,0,7.1,0c2.5-0.1,4.9-0.7,7-2.1c0.3-0.1,0.6-0.3,0.8-0.5 c1.1-0.6,2.1-1.4,3-2.4c0.5-0.3,0.9-0.7,1.2-1.2c0.4-0.3,0.7-0.6,1-1c1.1-1.1,2.2-2.1,3.3-3.2c0.8-0.7,1.6-1.4,2.4-2.1 c0.3-0.2,0.3-0.4,0-0.7c-1.4-1.2-2.7-2.5-4-3.7c-0.3-0.3-0.7-0.7-1-1c-1.7-1.8-3.3-3.5-5.4-4.8C31.5,39.9,31.3,39.8,31.1,39.7z"/>
        </g>

        <g id="education">
            <path stroke-width="5" d="M89.5,37.9c1.6-0.6,1.6-1.6,0-2.2L53,22.1c-1.6-0.6-4.3-0.6-6,0L10.5,35.7c-1.6,0.6-1.6,1.6,0,2.2L47,51.5c1.6,0.6,4.3,0.6,6,0 L89.5,37.9z"/>
            <path stroke-width="5" d="M22.1,42.3v18.6c0,4.1,12.9,7.4,28.7,7.4c10.3,0,19.2-1.3,24.3-3.4"/>
            <polyline stroke-width="4" points="75.7,44.5 75.7,78.3 82,71.3 88.2,78.3 88.2,38.5"/>
        </g>

        <g id="intelligence">
            <path stroke-width="5" d="M50.2,13.3v73.3c0,0-1,5.2,11.8,5.2S85.4,76.3,84.3,64s-2.8-14.5-2.8-14.5s0.1-17.2-10.2-27.7c0,0-0.9-6.6-5.8-10.6 s-9.1-2.9-9.1-2.9S50.2,9.1,50.2,13.3z"/>
            <path stroke-width="3" d="M50.1,63.8c1,5.8,5.8,10.3,11.3,10.9c7,0.8,11.5-5,11.7-5.2"/>
            <path stroke-width="3" d="M67.7,73.7c0.7,4.6-2.7,8.6-6.5,8.1"/>
            <path stroke-width="4" d="M73.3,40.9c0,0,7.9,4.3,10.2,15.9"/>
            <path stroke-width="3" d="M66.9,62.6c3.6-7.4-0.9-11.2-2.7-13.5c-1-1.3-1.8-1.6-2.8-3.3c-0.4-0.7-3-5.4-1.1-10.5c0.4-0.9,1.2-2.6,2.9-4.3"/>
            <path stroke-width="3" d="M56.5,24c0,0-6.4,1-6.4,7"/>
            <path stroke-width="4" d="M70.2,27.5c0,0,1.2-4.1,0.1-9.3"/>
            <path stroke-width="5" d="M50.1,13.3v73.3c0,0,1,5.2-11.8,5.2S15.6,76.4,15.6,64c0-9.2,3.2-14.5,3.2-14.5S18.7,32.3,29,21.8c0,0,0.9-6.6,5.8-10.6 s9.1-2.9,9.1-2.9S50.1,9.1,50.1,13.3z"/>
            <path stroke-width="3" d="M50.1,63.8c-1,5.8-5.8,10.3-11.2,10.9c-7,0.8-11.5-5-11.7-5.2"/>
            <path stroke-width="3" d="M32.6,73.7c-0.7,4.6,2.7,8.6,6.5,8.1"/>
            <path stroke-width="4" d="M27,40.9c0,0-7.6,4.6-10.7,15.9"/>
            <path stroke-width="3" d="M33.4,62.6c-3.6-7.4,0.9-11.2,2.7-13.5c1-1.3,1.8-1.6,2.8-3.3c0.4-0.7,3-5.4,1.1-10.5c-0.4-0.9-1.2-2.6-2.9-4.3"/>
            <path stroke-width="3" d="M43.8,24c0,0,6.3,1,6.3,7"/>
            <path stroke-width="4" d="M30.1,27.5c0,0-1.2-4.1-0.1-9.3"/>
        </g>

        <g id="waterpipe">
            <line stroke-width="4" x1="37.8" y1="67.1" x2="50.4" y2="67.1"/>
            <path stroke-width="5" d="M26.4,72.1c0,3.2,2.6,5.7,5.7,5.7s5.7-2.6,5.7-5.7"/>
            <path stroke-width="5" d="M13.9,72.9c0,10.1,8.2,18.2,18.2,18.2S50.4,83,50.4,72.9"/>
            <line stroke-width="5" x1="13.9" y1="72.9" x2="13.9" y2="19.5"/>
            <line stroke-width="5" x1="26.4" y1="72.1" x2="26.4" y2="19.5"/>
            <path stroke-width="5" d="M27.2,19.5H13.1c-1.6,0-3-1.4-3-3v-4.6c0-1.6,1.4-3,3-3h14.1c1.6,0,3,1.4,3,3v4.6C30.2,18.1,28.9,19.5,27.2,19.5z"/>
            <path stroke-width="5" d="M64.8,38.3V24.2c0-1.6,1.3-3,3-3h4.6c1.7,0,3,1.4,3,3v14.1c0,1.7-1.3,3-3,3h-4.6C66.1,41.3,64.8,39.9,64.8,38.3z"/>
            <path stroke-width="5" d="M37.8,53.7c0,0-1.2-18.5,13.2-25.5c1.7-0.8,3.5-1.4,5.6-1.9c2.1-0.4,5.6-0.7,8.1-0.7"/>
            <path stroke-width="5" d="M50.4,53.7c0,0-1-15.7,14.4-15.7"/>
            <line stroke-width="5" x1="37.8" y1="72.1" x2="37.8" y2="53.6"/>
            <line stroke-width="5" x1="50.4" y1="72.9" x2="50.4" y2="53.7"/>
            <line stroke-width="4" x1="13.9" y1="52.2" x2="26.4" y2="52.2"/>
            <line stroke-width="4" x1="13.9" y1="42.6" x2="26.4" y2="42.6"/>
            <path stroke-width="5" d="M57.8,34"/>
            <path stroke-width="5" d="M55.7,25.8"/>
            <line stroke-width="4" x1="37.8" y1="57.5" x2="50.4" y2="57.5"/>
            <path stroke-width="2" d="M81.6,25.2c0,0,2.1-3.3,3.4-2.7c1.2,0.6,0.9,1.2,0.4,1.6C84.9,24.5,83.5,23.3,81.6,25.2"/>
            <path stroke-width="2" d="M81.4,34.7c0,0,3,2.5,2.3,3.7s-1.3,0.7-1.7,0.2C81.7,38.1,83,36.8,81.4,34.7"/>
            <path stroke-width="3" d="M82,30.7c0,0,5.1-2.4,6.2-0.8s0.2,2.1-0.7,2.3C86.6,32.3,85.8,29.8,82,30.7"/>
        </g>

        <g id="stopwatch">
            <g>
                <circle cx="48.7" cy="60.1" r="26.1"/>
                <circle stroke-width="5" cx="48.7" cy="60.1" r="2.2"/>
                <line stroke-width="3" x1="62.7" y1="46.1" x2="48.7" y2="60.1"/>
            </g>
            <circle stroke-width="4" cx="48.7" cy="60.1" r="26.1"/>
            <polygon stroke-width="4" points="58.7,16.3 38.6,16.3 38.6,5 58.7,5 "/>
            <line stroke-width="3" x1="42.9" y1="16.3" x2="42.9" y2="25.6"/>
            <line stroke-width="3" x1="54.4" y1="16.3" x2="54.4" y2="25.6"/>
            <path stroke-width="5" d="M73.1,35.2c-6.3-6.2-14.9-10-24.5-10c-19.3,0-34.9,15.6-34.9,34.9C13.7,79.4,29.4,95,48.7,95s34.9-15.6,34.9-34.9 c0-9.5-3.8-18.2-10-24.5L73.1,35.2z"/>
            <polygon stroke-width="4" points="74.3,36.3 81.4,36.3 86.3,31.4 77.3,22.5 72.2,27.6 72.2,34.3 "/>
        </g>

        <g id="taxfreesavings">
            <polygon stroke-width="4" points="5.1,66 94.9,66 94.9,91.9 5.1,91.9"/>
            <path stroke-width="2" d="M22.6,74.4H14 M18.3,74.4v9.2"/>
            <path stroke-width="2" d="M27.5,74.5l-3.8,9 M31.3,83.5l-3.8-9 M29.8,80h-4.7"/>
            <path stroke-width="2" d="M49.6,79h4.6 M49.6,74.4h5.7 M49.6,83.5v-9.1"/>
            <path stroke-width="2" d="M61.1,79l4.9,4.6 M59.6,83.6v-9.2 M59.6,79h4.3c1.2,0,2.2-1,2.2-2.2v-0.2c0-1.2-1-2.2-2.2-2.2h-4.3"/>
            <path stroke-width="2" d="M34.5,74.4l6.4,9.1 M41,74.4l-6.4,9.1"/>
            <path stroke-width="2" d="M76,74.4h-5.7 M70.3,83.5H76 M70.3,74.4v9.1 M75,79h-4.6"/>
            <path stroke-width="2" d="M86,74.4h-5.7 M80.3,83.5H86 M80.3,74.4v9.1 M85,79h-4.6"/>
            <line stroke-width="5" x1="19" y1="64" x2="19" y2="23.4"/>
            <line stroke-width="5" x1="45.1" y1="23.6" x2="45.1" y2="34.5"/>
            <path stroke-width="5" d="M19,23.6c0-2.7,5.8-4.9,13-4.9s13,2.2,13,4.9"/>
            <path stroke-width="5" d="M45.1,23.6c0,2.7-5.8,4.9-13,4.9s-13-2.2-13-4.9"/>
            <path stroke-width="4" d="M45.1,33.7c0,2.7-5.8,4.9-13,4.9s-13-2.2-13-4.9"/>
            <path stroke-width="4" d="M39.4,47.7c-2.1,0.5-4.6,0.9-7.4,0.9c-7.2,0-13-2.2-13-4.9"/>
            <path stroke-width="4" d="M39,57.8c-2,0.5-4.4,0.8-7,0.8c-7.2,0-13-2.2-13-4.9"/>
            <line stroke-width="5" x1="85" y1="13" x2="85" y2="64"/>
            <path stroke-width="4" d="M85,33.7c0,2.7-5.8,4.9-13,4.9s-13-2.2-13-4.9"/>
            <path stroke-width="5" d="M58.9,13c0-2.7,5.8-4.9,13-4.9s13,2.2,13,4.9"/>
            <path stroke-width="4" d="M85,23.6c0,2.7-5.8,4.9-13,4.9s-13-2.2-13-4.9"/>
            <path stroke-width="5" d="M85,13c0,2.7-5.8,4.9-13,4.9S59,15.7,59,13"/>
            <path stroke-width="4" d="M85,43.7c0,2.7-5.8,4.9-13,4.9c-2.6,0-5-0.3-7-0.8"/>
            <path stroke-width="4" d="M85,53.6c0,2.7-5.8,4.9-13,4.9c-2.5,0-4.8-0.3-6.7-0.7"/>
            <line stroke-width="5" x1="58.9" y1="13" x2="58.9" y2="34.5"/>
            <line stroke-width="5" x1="65" y1="40.4" x2="65" y2="64"/>
            <line stroke-width="5" x1="39" y1="40.4" x2="39" y2="64"/>
            <path stroke-width="5" d="M39,39.8c0-2.7,5.8-4.9,13-4.9s13,2.2,13,4.9"/>
            <path stroke-width="5" d="M65,39.8c0,2.7-5.8,4.9-13,4.9s-13-2.2-13-4.9"/>
            <path stroke-width="4" d="M65,49.9c0,2.7-5.8,4.9-13,4.9s-13-2.2-13-4.9"/>
            <path stroke-width="4" d="M65,59.9c0,2.7-5.8,4.9-13,4.9s-13-2.2-13-4.9"/>
        </g>

        <g id="decorate">
            <path stroke-width="4" stroke-miterlimit="10" d="M75.9,34H9.6c-1.7,0-3-1.3-3-3V10.5c0-1.7,1.3-3,3-3h66.3c1.7,0,3,1.3,3,3V31C78.9,32.7,77.5,34,75.9,34z"/>
            <path stroke-width="4" stroke-linecap="round" stroke-miterlimit="10" d="M79.6,23.8h5.9l0,2.4v13.1l-4.3,0.5l-40.1,3.8c-1,0.1-1.8,1-1.8,2.1v13"/>
            <path stroke-width="4" stroke-linecap="round" stroke-miterlimit="10" d="M39.8,51.8"/>
            <path stroke-width="4" stroke-linecap="round" stroke-miterlimit="10" d="M79.6,15.9h9.7c2.3,0,4.1,1.9,4.1,4.1v23.5c0,1.6-1.2,2.9-2.7,3.1l-2.2,0.3l-41.1,4V59"/>
            <path stroke-width="4" stroke-miterlimit="10" d="M39.3,42"/>
            <path stroke-width="4" stroke-linecap="round" stroke-linejoin="round" stroke-miterlimit="10" d="M52.8,59h-20v27.5c0,3.3,2.7,6,6,6h8c3.3,0,6-2.7,6-6V59z"/>
            <line stroke-width="3" stroke-linecap="round" stroke-linejoin="round" stroke-miterlimit="10" x1="13.9" y1="13.4" x2="71.7" y2="13.4"/>
        </g>

        <g id="filter">
            <line stroke-width="5" x1="40.9" y1="82" x2="91.2" y2="82"/>
            <line stroke-width="5" x1="8.8" y1="82" x2="22.6" y2="82"/>
            <line stroke-width="5" x1="77.4" y1="50" x2="91.2" y2="50"/>
            <line stroke-width="5" x1="8.8" y1="50" x2="59.1" y2="50"/>
            <line stroke-width="5" x1="40.9" y1="18" x2="91.2" y2="18"/>
            <line stroke-width="5" x1="8.8" y1="18" x2="22.6" y2="18"/>
            <circle stroke-width="4" cx="31.7" cy="82" r="9.1"/>
            <circle stroke-width="4" cx="68.3" cy="50" r="9.1"/>
            <circle stroke-width="4" cx="31.7" cy="18" r="9.1"/>
        </g>

        <g id="contactform">
            <polygon stroke-width="5" points="56,10 20,10 20,90 80,90 80,34 56,34"/>
            <line stroke-width="5" x1="56" y1="10" x2="80" y2="34"/>
            <path stroke-width="4" d="M56,32"/>
            <path stroke-width="4" d="M32.8,32"/>
            <line stroke-width="4" x1="32.8" y1="44" x2="67.2" y2="44"/>
            <line stroke-width="4" x1="32.8" y1="56" x2="67.2" y2="56"/>
            <line stroke-width="4" x1="32.8" y1="68" x2="67.2" y2="68"/>
        </g>

        <g id="emailat">
            <circle stroke-width="5" cx="49.4" cy="50" r="15.9"/>
            <line stroke-width="5" x1="65.2" y1="55.8" x2="65.2" y2="34.1"/>
            <path stroke-width="5" d="M86.9,55.7c0.3-1.9,0.4-3.8,0.4-5.7c0-20.6-16.7-37.4-37.4-37.4S12.6,29.4,12.6,50S29.4,87.4,50,87.4c8.9,0,17-3.1,23.5-8.3"/>
            <path stroke-width="5" d="M65.3,55.8c0,5.5,4.5,10,10,10c7,0,10.3-3.5,11.7-10.2"/>
        </g>

        <g id="tick">
            <polyline stroke-width="11" stroke-linecap="round" stroke-linejoin="round" points="70.5,35.5 41.5,64.5 29.5,52.5"/>
        </g>

        <g id="cross">
            <g>
                <line stroke-width="11" stroke-linecap="round" stroke-linejoin="round" x1="33.5" y1="33.5" x2="66.5" y2="66.5"/>
                <line stroke-width="11" stroke-linecap="round" stroke-linejoin="round" x1="66.5" y1="33.5" x2="33.5" y2="66.5"/>
            </g>
        </g>

        <g id="warning">
            <path stroke-width="7" stroke-linecap="round" stroke-linejoin="round" d="M9,85.5l41-71l41,71L9,85.5z"/>
            <line stroke-width="7" stroke-linecap="round" stroke-linejoin="round" x1="50" y1="43.5" x2="50" y2="60.5"/>
            <line stroke-width="7" stroke-linecap="round" stroke-linejoin="round" x1="50" y1="69.9" x2="50" y2="70.1"/>
        </g>

        <g id="arrow">
            <polyline stroke-width="11" stroke-linecap="round" stroke-linejoin="round" points="41.5,67 58.5,50 41.5,33"/>
        </g>

        <g id="disc">
            <circle cx="50" cy="50" r="42"/>
        </g>

        <g id="search">
            <circle stroke-width="8" stroke-linecap="round" stroke-linejoin="round" cx="58.4" cy="41.6" r="19.9"/>
            <line stroke-width="8" stroke-linecap="round" stroke-linejoin="round" x1="21.7" y1="78.3" x2="43.3" y2="56.7"/>
        </g>
        <g id="telematics">
			<path stroke-width="4" stroke-linecap="round" stroke-linejoin="round" stroke-miterlimit="10" d="M29.1,44.1"/>
            <path stroke-width="4" stroke-linecap="round" stroke-linejoin="round" stroke-miterlimit="10" d="M71,46.3c3.2,0,5.9,2.7,5.9,5.9v8.7c0,3.2-2.7,5.9-5.9,5.9H22.3c-3.2,0-5.9-2.7-5.9-5.9v-8.7c0-3.2,2.7-5.9,5.9-5.9"/>
			<path stroke-width="4" stroke-linecap="round" stroke-linejoin="round" stroke-miterlimit="10" d="M70.8,67.6v5.6c0,1.1-1,2-2.2,2h-3.7c-1.2,0-2.2-0.9-2.2-2v-5.6"/>
			<path stroke-width="4" stroke-linecap="round" stroke-linejoin="round" stroke-miterlimit="10" d="M30.8,67.6v5.6c0,1.1-1,2-2.2,2h-3.7c-1.2,0-2.2-0.9-2.2-2v-5.6"/>
            <circle stroke-width="3" cx="27" cy="56" r="4"/>
            <circle stroke-width="3" cx="66" cy="56" r="4"/>
			<path stroke-width="4" stroke-linecap="round" stroke-linejoin="round" stroke-miterlimit="10" d="M63.8,26.5c-17.8-3-34.3,0-34.3,0C26.5,27,25.3,31,25.3,31l-4.5,15.5"/>
			<path stroke-width="4" stroke-linecap="round" stroke-linejoin="round" stroke-miterlimit="10" d="M68.1,31c0,0-1.2-3.9-4.2-4.5"/>
            <line stroke-width="4" stroke-linecap="round" stroke-linejoin="round" stroke-miterlimit="10" x1="68" y1="30.8" x2="72.5" y2="46.4"/>
			<path stroke-width="4" stroke-linecap="round" stroke-linejoin="round" stroke-miterlimit="10" d="M65.9,44"/>
            <path stroke-width="3" stroke-linecap="round" stroke-linejoin="round" stroke-miterlimit="10" d="M59.9,44H29.6c-0.8,0-1.1-0.7-1.1-1.5l2.3-8.3c0.4-1.4,1.8-2,2.2-2c0,0,12.2-2.2,27.2,0c0.4,0.1,1.9,0.6,2.2,2l2.3,8.3 c0,0.8-0.3,1.5-1.1,1.5H33.4"/>
            <path stroke-width="4" stroke-linecap="round" stroke-linejoin="round" stroke-miterlimit="10" d="M17.8,29.2c-0.8-6.5,6.3-12.8,12.7-11.2"/>
            <path stroke-width="4" stroke-linecap="round" stroke-linejoin="round" stroke-miterlimit="10" d="M9.7,30.5C8.2,18.6,21.2,7.1,32.8,10"/>
            <path stroke-width="4" stroke-linecap="round" stroke-linejoin="round" stroke-miterlimit="10" d="M2.2,31.3C0.1,14.7,18.3-1.4,34.5,2.6"/>
        </g>

    </defs>

</svg>
