<svg version="1.1" xmlns="http://www.w3.org/2000/svg" xmlns:xlink="http://www.w3.org/1999/xlink" viewBox="0 0 317 317">
    <defs>
        <circle id="disc" cx="158.5" cy="158.5" r="150" />
        <path id="text" d="M105.7,109.4L105.7,109.4c0-9.6,7.9-17.7,19-17.7c11,0,18.8,8,18.8,17.5v0.1	c0,9.5-7.9,17.6-18.9,17.6C113.5,126.8,105.7,118.8,105.7,109.4z M130,109.4L130,109.4c0-3.4-2.5-6.1-5.5-6.1	c-3.2,0-5.4,2.6-5.4,5.8v0.1c0,3.3,2.5,6,5.6,6C127.8,115.2,130,112.6,130,109.4z M79.9,118.7c0.2-0.3,0.4-0.7,0.7-1l7-10.8	c0.8-1.2,1.5-1,1.5,0.4v16c0,1.5,1.2,2.7,2.7,2.7h9c1.5,0,2.7-1.2,2.7-2.7V85.6c0-1.5-1.2-2.7-2.7-2.7h-9.7c-1.5,0-3.3,1-4.1,2.3	l-6.4,10.6c-0.8,1.3-2,1.3-2.8,0l-6.4-10.6c-0.8-1.3-2.6-2.3-4.1-2.3h-9.7c-1.5,0-2.7,1.2-2.7,2.7v37.7c0,1.5,1.2,2.7,2.7,2.7h8.8	c1.5,0,2.7-1.2,2.7-2.7v-16c0-1.5,0.6-1.7,1.5-0.4l7,10.8c0.2,0.4,0.5,0.7,0.6,1C78.6,119.4,79.5,119.5,79.9,118.7z M217.8,107.3	c-0.9-7.2-4.4-10.3-5.6-11.4c-4.4-4-11.1-3.9-11.1-3.9c-4.7-0.1-7.9,1.5-7.9,1.5c-5,2.3-7.4,6.2-8.1,7.8c-2.4,4.7-1.9,9.9-1.7,11	c0.2,1.7,0.6,4.6,3,8c1.8,2.5,5.5,6,12.7,6.8c10.7,1.1,15.9-4.8,16.5-5.6c1.2-1.2,0.6-2.2,0-2.7c0,0-3.2-2.5-4.7-3.8	c-1.4-1.1-2.2-0.3-2.6,0c-1.2,1.1-2.7,1.8-3.6,2c-4.4,1.1-6.6-1.8-7-2.5c-0.8-1.9,1.5-1.7,1.5-1.7s16.4-0.1,17.1,0	c1.8-0.1,1.6-1.1,1.7-1.7C218.1,109.7,218,108.9,217.8,107.3z M203.2,106.8c-2.1,0-4.5,0-4.5,0s-2.6-0.2-1.3-2.8	c0.4-0.8,1.7-2.6,3.9-2.2c1.3,0.3,2.4,0.8,3.3,2.5C204.9,104.9,205.5,106.7,203.2,106.8z M221.7,108.9c0,0,5.5,13.6,6.2,15.3	c0.7,1.5,0.3,2.1-0.5,1.9c-2.3-0.4-3.6-0.9-4.9-1.4c-2.5-1.1-3.5,1.1-3.5,1.1s-1.7,3.9-2.2,5.2c-0.5,1.1-0.2,2.6,1.4,3.2	c1.5,0.7,2.9,1.1,4.7,1.6c8,1.8,12-0.2,13.4-1c4.7-2.6,7-10.1,8-12.6c0-0.1,8.8-23.8,9.9-26.5c1.1-2.9-1.7-2.8-1.7-2.8s-7,0-8.9,0	c-2.6,0.2-3.3,2.5-3.3,2.5s-3.6,11.9-3.9,12.8c-0.2,0.6-0.5,0.9-0.7,1c-0.5,0-0.8-0.8-0.8-0.8s-3.2-9.7-4.2-12.8 c-1.1-2.7-3.5-2.6-3.5-2.6s-6.8,0-9.2,0c-2.6,0.2-1.6,2.4-1.6,2.4L221.7,108.9z M156.8,126c2.8-0.2,2.7-2.8,2.7-2.8s0-13.7,0-14.9	c-0.1-0.7,0.3-4.3,4-4.5c3.9,0.2,3.9,4.4,3.9,4.4s0,12.9,0,15.3c0.2,2.4,2.4,2.5,2.4,2.5s7.2,0,9.1,0c2.4-0.2,2.5-2.6,2.5-2.6	s0-18.8,0-19.7c-0.1-5.4-2.2-7.8-3.1-8.9c-2.3-2.4-5.2-3.3-8.4-3.3c-4.7,0.1-7.8,3.1-8.7,3.8c-1.5,1.1-1.6-0.2-1.6-0.6	c-0.2-2.2-2.4-2.4-2.4-2.4s-6.8,0-9.2,0c-2.4,0.3-2.5,2.4-2.5,2.4s0,25.1,0,28.1c-0.2,3,2.5,3.1,2.5,3.1S154.1,126,156.8,126z	 M207.9,160c-1-7.2-4.4-10.3-5.6-11.4c-4.5-4-11.1-3.9-11.1-3.9c-4.8-0.1-7.9,1.5-7.9,1.5c-5,2.3-7.3,6.2-8.1,7.8	c-2.4,4.7-1.9,9.9-1.8,11c0.2,1.7,0.6,4.6,3.1,8c1.8,2.5,5.5,6,12.7,6.8c10.7,1.1,15.9-4.8,16.5-5.5c1.2-1.3,0.6-2.2,0.1-2.7	c0,0-3.2-2.5-4.7-3.8c-1.4-1.1-2.2-0.3-2.7,0c-1.2,1.1-2.7,1.8-3.6,2c-4.4,1.1-6.6-1.8-7-2.5c-0.8-1.9,1.5-1.8,1.5-1.8	s16.4-0.1,17.1,0c1.8-0.1,1.6-1.1,1.7-1.7C208.1,162.4,208.1,161.6,207.9,160z M193.3,159.4c-2.1,0-4.5,0-4.5,0s-2.6-0.2-1.3-2.8	c0.4-0.8,1.7-2.6,4-2.2c1.3,0.3,2.3,0.8,3.3,2.5C195,157.6,195.5,159.3,193.3,159.4z M67.3,179.4c8.4,1.2,12.5-0.1,14.5-0.6	c6.3-1.8,8.7-5.6,9.6-7.4c2.2-4.5,1.2-8.8,0.7-10.2c-1.5-4-4.4-5.5-6.6-6.7c-3.7-1.8-8-2.6-10.6-3.1c-2.5-0.5-3.2-0.7-4.3-1	c-2-0.7-1.9-1.2-2-1.7c-0.2-0.8,0.5-1.5,1.1-1.8c2.1-0.9,4.5,0,6.6,0.6c1.7,0.5,3.4,1.1,5.1,1.8c0.5,0.2,1,0.4,1.5,0.6	c1.7,0.9,3-0.7,3-0.7s4.2-5.9,4.9-6.8c0.5-0.7,0.3-1.9-0.3-2.4c-0.9-0.6-1-0.6-2.6-1.6c-6.3-3.3-14-3.3-14-3.3s0.1-0.1-2.3,0	c-7.1,0.1-11.4,3-12.4,3.8c-3.9,3.1-4.7,6.9-5,8.7c-0.8,5.8,1.9,8.8,2.7,9.6c2.6,2.8,6.7,4.1,8.9,4.8c3,0.9,6.8,1.6,8.6,2	c3.7,0.8,3.7,1.7,3.8,2.4c0,1.7-1.8,1.9-3.6,2c-4.9,0-12-3.5-13.5-4.2c-1.6-0.7-2.8,0.5-2.8,0.5s-3.9,4.7-5.2,6.1	c-1.1,1.3-0.7,2.4,0,2.9c5,3.9,12.1,5.3,12.1,5.3L67.3,179.4z M221.2,179.2c2.8,0,2.8-2.6,2.8-2.6V170c0.1-4.6,1.7-6.6,2.1-7.2	c2.3-3,7-2.8,7-2.8c1.5,0,1.4-1.4,1.4-1.4s-0.1-10.7,0-12.1c0-1.3-1.1-1.3-1.7-1.3c-3.2,0.5-5.4,2.8-6,3.4c-0.6,0.5-1.6,1.9-1.8,2.2	c-1,0.8-1-0.8-1-0.8s0-0.7,0-1.5c-0.1-2.8-2.6-2.8-2.6-2.8s-6.3,0-8.8,0c-2.4,0.2-2.6,2.5-2.6,2.5s0,25.5,0,28.3	c0,2.7,2.5,2.8,2.5,2.8S218.5,179.2,221.2,179.2z M94.8,167.9c-0.1,1.9,0.6,4.2,0.6,4.2c2,6.8,7.8,7.7,10.4,7.8	c4.9,0.1,8-2.7,8.6-3.2c0.5-0.5,0.8-0.7,1.3-0.9c0.7-0.1,0.9,0.5,0.9,1c0.1,2.2,2.5,2.3,2.5,2.3s6.3,0,8.9,0	c2.7-0.3,2.6-2.8,2.6-2.8s0-25.1,0-28c-0.1-2.8-2.6-2.8-2.6-2.8s-6.4,0-8.9,0c-2.7,0.4-2.5,2.8-2.5,2.8v15.2c0,0,0,4-3.9,4.3	c-3.9,0-3.9-4.5-3.9-4.5s0-12.5,0-15c0-2.6-2.5-2.8-2.5-2.8s-6.2,0-8.9,0c-2.6,0.3-2.6,2.7-2.6,2.7S94.8,165.8,94.8,167.9z	 M171.3,157.4c-1.2-5.8-4.4-8.8-6.1-10.1c-5.4-4-10.9-2.3-11.8-2c-2.5,0.8-4.5,2.7-4.8,3c-1.1,0.6-1.2-0.2-1.3-0.5	c0-2.2-2.5-2.2-2.4-2.2s-6.2,0-8.9,0c-2.6,0.3-2.6,2.6-2.6,2.6V161c0,0,0,22,0,25.2c0.1,2.8,2.6,2.8,2.6,2.8s5.9,0,8.6,0	c2.9-0.1,2.8-2.9,2.8-2.9s0-6.6,0-9.5c0,0,0.2-0.9,0.9-0.4c3.6,3.5,6.9,3.6,8.8,3.7c5.4,0.2,8.6-2.9,9.6-3.8	c3.2-3.2,4.2-7.2,4.2-7.2C172.5,163.7,171.6,159,171.3,157.4z M158.2,162.4c0,3.4-2.4,6-5.6,6c-3.2,0-5.6-2.7-5.6-6v-0.1	c0-3.4,2.4-6,5.6-6c3.2,0,5.6,2.7,5.6,6V162.4z M79.9,225.6c0.2-0.3,0.4-0.6,0.7-1l7-10.8c0.8-1.2,1.5-1,1.5,0.4v16	c0,1.5,1.2,2.7,2.7,2.7h9c1.5,0,2.7-1.2,2.7-2.7v-37.7c0-1.5-1.2-2.7-2.7-2.7h-9.7c-1.5,0-3.3,1-4.1,2.3l-6.4,10.6	c-0.8,1.2-2,1.2-2.8,0l-6.4-10.6c-0.8-1.3-2.6-2.3-4.1-2.3h-9.7c-1.5,0-2.7,1.2-2.7,2.7v37.7c0,1.5,1.2,2.7,2.7,2.7h8.8	c1.5,0,2.7-1.2,2.7-2.7v-16c0-1.5,0.6-1.7,1.5-0.4l7,10.8c0.2,0.3,0.5,0.7,0.6,1C78.6,226.2,79.5,226.4,79.9,225.6z M237.2,213.7	c-0.9-7.2-4.4-10.3-5.6-11.4c-4.4-4-11.1-3.9-11.1-3.9c-4.7-0.1-7.9,1.5-7.9,1.5c-5,2.3-7.3,6.2-8.1,7.8c-2.4,4.7-1.9,9.8-1.8,10.9	c0.2,1.7,0.6,4.6,3.1,8c1.8,2.5,5.5,6,12.7,6.8c10.7,1.1,15.8-4.8,16.5-5.6c1.2-1.3,0.7-2.2,0.1-2.7c0,0-3.2-2.6-4.7-3.8	c-1.4-1.1-2.2-0.3-2.7,0c-1.2,1.1-2.7,1.8-3.6,2c-4.4,1.1-6.6-1.8-7-2.5c-0.8-1.9,1.5-1.7,1.5-1.7s16.4-0.1,17.1,0	c1.8-0.2,1.6-1.1,1.7-1.7C237.4,216.1,237.3,215.3,237.2,213.7z M222.6,213.2c-2.1,0-4.5,0-4.5,0s-2.6-0.2-1.3-2.8	c0.4-0.8,1.7-2.6,4-2.2c1.3,0.3,2.3,0.8,3.3,2.5C224.3,211.4,224.8,213.1,222.6,213.2z M154,232.9c2.8,0,2.8-2.6,2.8-2.6v-6.6	c0.1-4.6,1.7-6.7,2.1-7.2c2.3-3,7-2.8,7-2.8c1.5,0,1.4-1.4,1.4-1.4s0-10.7,0-12.1c0-1.3-1.1-1.3-1.7-1.3c-3.2,0.5-5.4,2.8-6,3.4	c-0.5,0.5-1.5,1.9-1.8,2.2c-1,0.8-1-0.8-1-0.8s0-0.7,0-1.5c-0.1-2.8-2.6-2.8-2.6-2.8s-6.2,0-8.8,0c-2.4,0.2-2.6,2.5-2.6,2.5	s0,25.5,0,28.3c0,2.7,2.5,2.8,2.5,2.8S151.3,232.9,154,232.9z M140.1,213.7c0-1.3,0.1-4.9-1.7-8.2c-2-3.6-5.8-5.1-5.8-5.1	c-3.6-1.7-9.5-1.7-11.6-1.7c-5.3,0.4-7.4,1-9.9,1.6c-2.8,0.8-2.2,3.3-2.2,3.3s1.1,4.1,1.4,5.4c0.3,1.2,1.4,1,1.8,0.9	c5.7-1.9,9.1-1.4,10.6-1.1c2.9,0.9,3.2,2.7,3.4,3.6c0.2,1.2-0.5,1.3-1,1.2c-2.1-0.5-4.7-0.9-6.3-0.9c-4.8-0.1-7.3,1.1-8.9,2	c-4.2,2.8-4.4,6.1-4.4,8.8c0.1,5.5,3.2,7.5,4.2,8.3c2.8,1.8,6,1.8,7.2,1.8c4.3-0.3,6.7-2.3,7.3-2.7c0.3-0.2,0.7-0.4,1-0.5	c0.9-0.1,0.8,0.3,0.9,0.6c0.1,1.7,2.5,1.7,2.5,1.7s5.5,0,8.6,0s2.9-2.8,2.9-2.8S140.1,215.2,140.1,213.7z M126.3,221.4	c-0.5,3.9-3.5,4.2-3.5,4.2c-2.2,0.2-2.6-0.4-3.1-0.8c-1.3-1.3-0.9-3.1-0.7-3.8c1-2.4,3.5-2.4,4.2-2.4	C126.7,218.9,126.3,220.6,126.3,221.4z M241.4,196.4c0,2.8-1.6,3-2,3c-1.8,0.1-2,2.4-2,2.4s0,4.1,0,5.7c0,2,1.2,2.6,2,2.7	c1.9,0.2,2,2.5,2,2.5s0,6.5,0,9.2c0.1,2.6,0.3,3.4,0.6,4.7c1.8,5.7,6.6,6.5,8,6.8c4.7,0.8,7.2,0.2,9.2-0.3c3.8-0.7,3.8-3.9,3.8-3.9	s0-5.9,0-7c0-1-0.8-0.8-1.2-0.7c-1.7,0.5-2.3,0.5-3.1,0.6c-1.6,0-2.1-0.6-2.5-0.9c-0.7-0.8-0.7-2.3-0.7-2.3s0-3.3,0-6	c0.1-2.8,2.7-2.7,2.7-2.7s1.2,0,2.3,0c2.7-0.1,2.7-2.7,2.7-2.7s0-2.9,0-5.3c-0.1-3-2.8-2.8-2.8-2.8s-0.1,0-2.1,0	c-2.9-0.1-2.9-2.7-2.9-2.7s0-1.4,0-2.9c0-2.8-2.5-2.9-2.5-2.9s-6.2,0-8.8,0c-2.6,0.1-2.7,2.6-2.7,2.6S241.4,194.2,241.4,196.4z	 M187.7,226c0,0,1.1,2.1,2.4,4.6c1.5,2.4,3.9,2.3,3.9,2.3s7.5,0,9.8,0c2.4-0.3,1.2-2.4,1.2-2.4s-6.8-12.6-8.2-15.2	c-1.1-2.7,0.6-4.6,0.6-4.6s5.8-7.5,7.1-9.2c1.4-2-0.8-2.1-0.8-2.1s-7.9,0-10.3,0c-2.5,0.1-3.9,2-3.9,2s-3.3,4.7-4.4,6.4 c-1.3,1.5-1.4-0.6-1.4-0.6s0-13.4,0-16.3c0-2.9-2.7-2.8-2.7-2.8h-8.3c-2.9-0.1-2.9,2.6-2.9,2.6s0,36.7,0,39.6	c0.2,2.7,2.6,2.7,2.6,2.7s6.1,0,8.6,0c2.8-0.1,2.7-2.7,2.7-2.7V228c0,0,0-0.6,0.4-1.1s1.8-2.3,1.8-2.3s0.5-0.8,0.9,0 C187.3,225.2,187.7,226,187.7,226z"/>
    </defs>
</svg>