<svg version="1.1" id="Layer_1" xmlns="http://www.w3.org/2000/svg" xmlns:xlink="http://www.w3.org/1999/xlink" x="0px" y="0px"
	 viewBox="0 0 227.5 96" enable-background="new 0 0 227.5 96" xml:space="preserve">
    
<g id="carbody">
	<g>
		<path fill="#FFFFFF" d="M225,61.8c0-21-58.9-25.4-58.9-25.4c-16-29.5-27.1-33.9-53.3-33.9H80.5h-4.4C10.8,2.5,7.7,46.8,7.7,46.8
			v1.8v13.1v19c-3.5,0-5.2,2.9-5.2,6.4c0,3.5,2.9,6.4,6.4,6.4h201.6h2.9h3.5l8.1-12.7V61.8z"/>
		
			<path fill="#FFFFFF" stroke="#562873" stroke-width="5" stroke-linecap="round" stroke-linejoin="round" stroke-miterlimit="10" d="
			M212.4,93.5h0.9h3.5l8.1-12.7v-19c0-21-58.9-25.4-58.9-25.4c-16-29.5-27.1-33.9-53.3-33.9H80.5h-4.4C10.8,2.5,7.7,46.8,7.7,46.8
			v1.8v13.1v19c-3.5,0-5.2,2.9-5.2,6.4c0,3.5,2.9,6.4,6.4,6.4h11.9"/>
		
			<line fill="#FFFFFF" stroke="#562873" stroke-width="5" stroke-linecap="round" stroke-linejoin="round" stroke-miterlimit="10" x1="70.1" y1="93.5" x2="162.6" y2="93.5"/>
		<g>
			<g>
				<path fill="none" stroke="#562873" stroke-width="3.2881" stroke-linecap="round" stroke-miterlimit="10" d="M164.7,36.8H95.1
					c-4.8,0-3.7-5.8-3.7-5.8V2.5"/>
			</g>
		</g>
		<g>
			<g>
				<path fill="none" stroke="#562873" stroke-width="3.2881" stroke-linecap="round" stroke-miterlimit="10" d="M12.4,36.8h60.3
					c4.8,0,3.7-5.8,3.7-5.8V2.5"/>
			</g>
		</g>
		
			<line fill="none" stroke="#562873" stroke-width="5.4801" stroke-linecap="round" stroke-miterlimit="10" x1="89.2" y1="47.7" x2="99.7" y2="47.7"/>
	</g>
	
		<line fill="#37AAE1" stroke="#562873" stroke-width="3" stroke-linecap="round" stroke-miterlimit="10" x1="165.3" y1="84.5" x2="67.9" y2="84.5"/>
	<path fill="none" stroke="#562873" stroke-width="2" stroke-linecap="round" stroke-miterlimit="10" d="M4.3,75.2L4.3,75.2
		c-1.5,0-2.8-1.3-2.8-2.8V70c0-1.5,1.3-2.8,2.8-2.8h0"/>
	
		<line fill="none" stroke="#562873" stroke-width="2" stroke-linecap="round" stroke-miterlimit="10" x1="4.3" y1="67.2" x2="7.8" y2="67.2"/>
	
		<line fill="none" stroke="#562873" stroke-width="2" stroke-linecap="round" stroke-miterlimit="10" x1="4.3" y1="75.2" x2="7.8" y2="75.2"/>
</g>
    
</svg>
