<svg xmlns="http://www.w3.org/2000/svg" width="21" height="28" viewBox="0 0 21 28">
    <path fill="none" fill-rule="evenodd" stroke="#C6CACC" stroke-linecap="round" stroke-linejoin="round" stroke-width="2" d="M7.279 26.793s-5.87-2.622-5.87-7.192c0-7.1 7.027-12.866 7.027-17.734 0 0 10.665 9.239 10.665 15.13.124 3.348-.578 4.588-1.322 5.87-.744 1.28-4.112 4.133-5.044 4.133-.34 0 3.287-3.4 3.287-7.43-.031-5.519-4.62-9.053-4.62-9.053 0 6.14-2.108 8.743-2.108 8.743 0-1.985-1.767-3.834-1.767-3.834 0 1.601-2.15 4.38-2.15 6.242 0 3.278 1.902 5.125 1.902 5.125z"/>
</svg>
