<svg xmlns="http://www.w3.org/2000/svg" xmlns:xlink="http://www.w3.org/1999/xlink" width="256" height="122" viewBox="0 0 256 122">
    <defs>
        <path id="a" d="M6.895.451L.69 3.484a.476.476 0 0 0-.28.612l.083.225c.09.246.363.371.609.28l6.204-3.033a.478.478 0 0 0 .28-.611L7.503.732a.474.474 0 0 0-.608-.28z"/>
        <path id="c" d="M.678.615l-.246.11c-.27.122-.354.518-.19.886l5.01 9.318c.165.367.516.566.786.444l.245-.11c.27-.122.356-.518.191-.885l-5.011-9.32C1.332.766 1.08.579.847.579a.399.399 0 0 0-.17.037z"/>
        <path id="e" d="M.406 3.49c0 1.79 2.505 3.255 3.242 3.255h17.047c1.783 0 3.241-1.464 3.241-3.254s-1.458-1.34-3.24-1.34L1.685.236C-.096.235.406 1.701.406 3.491z"/>
        <path id="g" d="M2.763.407C.873.407.307 4.277.307 5.299v23.656c0 2.474 1.547 4.498 3.437 4.498s2.188-2.024 2.188-4.498L7.18 1.988C7.18.56 4.597.392 3.381.392c-.374 0-.618.015-.618.015z"/>
        <path id="i" d="M1.291.604a.81.81 0 0 0-.807.808v1.533c0 .445.363.809.807.809h8.266a.81.81 0 0 0 .806-.81V1.413a.81.81 0 0 0-.806-.808H1.29z"/>
        <path id="k" d="M1.031.348a.469.469 0 0 0-.467.47v34.995c0 .259.209.47.467.47h.53c.258 0 .467-.211.467-.47V.817c0-.26-.21-.47-.467-.47h-.53z"/>
        <path id="m" d="M2.919.518L.262 3.276H25.5V.519z"/>
        <path id="o" d="M.428 3.97A3.481 3.481 0 0 0 3.903 7.46 3.482 3.482 0 0 0 7.378 3.97 3.48 3.48 0 0 0 3.903.483 3.48 3.48 0 0 0 .428 3.971z"/>
        <path id="q" d="M.827.413a.965.965 0 0 0 0 1.36.953.953 0 0 0 1.355 0A.963.963 0 0 0 1.504.132a.953.953 0 0 0-.677.282z"/>
        <path id="s" d="M.468.549a.964.964 0 0 0 0 1.361.955.955 0 0 0 1.354 0 .966.966 0 0 0 0-1.361.954.954 0 0 0-1.354 0z"/>
        <path id="u" d="M.496.883a.963.963 0 0 0 0 1.36.955.955 0 0 0 1.355 0A.965.965 0 0 0 1.173.6a.953.953 0 0 0-.677.283z"/>
        <path id="w" d="M.359.883a.965.965 0 0 0 0 1.36.956.956 0 0 0 1.356 0A.965.965 0 0 0 1.037.6a.956.956 0 0 0-.678.283z"/>
        <path id="y" d="M.195 1.62c0 .531.43.962.959.962a.96.96 0 0 0 .957-.962.96.96 0 0 0-.957-.963.96.96 0 0 0-.959.963z"/>
        <path id="A" d="M.49 1.506a.96.96 0 1 0 1.917 0c0-.53-.43-.962-.959-.962a.96.96 0 0 0-.958.962z"/>
        <path id="C" d="M.13 1.62c0 .531.429.962.958.962a.96.96 0 0 0 .958-.962.96.96 0 0 0-.958-.963.96.96 0 0 0-.958.963z"/>
        <path id="E" d="M.603 1.506a.96.96 0 0 0 .957.962.96.96 0 0 0 .959-.962.96.96 0 0 0-.959-.962.96.96 0 0 0-.957.962z"/>
        <path id="G" d="M.31 2.948c0 1.226.989 2.22 2.21 2.22a2.215 2.215 0 0 0 2.21-2.22c0-1.226-.989-2.22-2.21-2.22S.31 1.723.31 2.949z"/>
        <path id="I" d="M.467.27a.648.648 0 0 0 0 .914c.25.252.658.252.91 0A.648.648 0 0 0 .92.08a.637.637 0 0 0-.454.19z"/>
        <path id="K" d="M.467.7a.647.647 0 0 0 0 .914.64.64 0 0 0 .91 0A.647.647 0 0 0 .92.511a.634.634 0 0 0-.454.19z"/>
        <path id="M" d="M.28.887a.648.648 0 0 0 0 .913c.252.252.66.252.911 0A.647.647 0 0 0 .736.697a.638.638 0 0 0-.455.19z"/>
        <path id="O" d="M.652.887a.647.647 0 0 0 0 .913.643.643 0 0 0 .91 0A.647.647 0 0 0 1.106.697a.64.64 0 0 0-.454.19z"/>
        <path id="Q" d="M.34 1.406a.645.645 0 1 0 1.288 0 .645.645 0 0 0-1.288 0z"/>
        <path id="S" d="M.214 1.281a.645.645 0 1 0 1.289 0A.646.646 0 0 0 .859.633a.646.646 0 0 0-.645.648z"/>
        <path id="U" d="M.214 1.406c0 .357.289.647.645.647a.646.646 0 0 0 0-1.293.646.646 0 0 0-.645.646z"/>
        <path id="W" d="M.34 1.281a.645.645 0 1 0 1.288 0A.646.646 0 0 0 .984.633a.646.646 0 0 0-.643.648z"/>
        <path id="Y" d="M0 17.813v.094c0 9.522 7.709 17.028 17.8 17.028 10.092 0 17.895-7.6 17.895-17.122v-.094C35.695 8.196 27.985.69 17.894.69 7.802.691 0 8.291 0 17.813zm11.026 0v-.094c0-3.847 2.616-7.319 6.775-7.319 4.205 0 6.867 3.518 6.867 7.413v.094c0 3.846-2.616 7.317-6.774 7.317-4.204 0-6.868-3.518-6.868-7.411z"/>
        <path id="aa" d="M.038 14.201v.094c0 7.224 5.934 13.322 14.297 13.322 8.41 0 14.39-6.192 14.39-13.416v-.094C28.725 6.883 22.792.785 14.43.785 6.019.785.039 6.977.039 14.201zm10.185 0v-.094c0-2.44 1.73-4.456 4.112-4.456 2.336 0 4.205 2.017 4.205 4.55v.094c0 2.44-1.728 4.457-4.111 4.457-2.337 0-4.206-2.018-4.206-4.551z"/>
        <path id="ac" d="M11.337 4.537V1.394H.731v33.12h10.606V24.098c1.635 1.83 3.784 3.519 7.662 3.519 6.028 0 10.886-5.395 10.886-13.51v-.095c0-7.834-4.813-13.228-10.98-13.228-3.877 0-5.84 1.877-7.568 3.752zm-.233 9.711v-.094c0-2.58 1.821-4.598 4.25-4.598 2.43 0 4.253 2.018 4.253 4.598v.094c0 2.58-1.822 4.597-4.252 4.597-2.43 0-4.251-2.064-4.251-4.597z"/>
        <path id="ae" d="M7.334 4.953l-.037.084c-2.2 4.82.69 8.059 5.891 12.204 2.064 1.671 2.353 2.166 2.139 2.635l-.04.085c-.253.555-.818.553-1.752.123-2.633-1.21-5.387-3.51-7.393-6.548l-5.78 3.998c2.3 3.741 5.853 6.769 10.356 8.84 6.287 2.89 11.41 1.686 13.725-3.389l.04-.086c2.178-4.776-.608-8.018-5.808-12.165-2.064-1.67-2.438-2.204-2.224-2.673l.04-.085c.213-.469.754-.53 1.689-.1 1.953.9 4.558 3.076 6.398 5.574l5.685-4.35c-2.024-2.996-5.357-5.715-9.18-7.474C18.894.62 16.792.108 14.891.108c-3.343 0-6.07 1.582-7.558 4.845z"/>
    </defs>
    <g fill="none" fill-rule="evenodd">
        <g stroke="#562A73" stroke-linecap="round" stroke-linejoin="round">
            <path stroke-width="1.613" d="M244.622 102.35h1.414c5.392 0 5.88-4.43 5.88-9.844v-21.57c0-5.413-.488-9.843-5.88-9.843h-27.423c-5.392 0-9.804 4.43-9.804 9.843M218.065 102.35h-26.076"/>
            <path stroke-width="1.21" d="M252.186 74.865c1.941 0 2.745 1.595 2.745 3.544v2.565c0 1.948-.804 3.543-2.745 3.543"/>
            <path stroke-width=".806" d="M231.344 61.093v28.559"/>
            <path stroke-width="1.613" d="M208.809 70.93h-20.982s-11.96 0-5.687-13.407c0 0 2.027-4.51 8.4-9.005 0 0 .572-4.807-4.968-8.893l-6.715 1.083"/>
            <path stroke-width="2.016" d="M156.489 86.605l-1.433-1.827L193.8 10.202s3.942-8.07 16.5-8.07h26.689c3.2 0 5.819 2.629 5.819 5.843v52.293"/>
            <path stroke-dasharray="0,2.50319995880127" stroke-width=".806" d="M234.155 64.264v24.753"/>
            <path stroke-width="1.21" d="M150.958 1.41h1.701c.668 0 1.209.543 1.209 1.213v110.56c0 .67-.541 1.213-1.209 1.213h-1.7a1.212 1.212 0 0 1-1.21-1.213V2.623c0-.67.542-1.214 1.21-1.214zM154.407 66.547l8.93 2.291"/>
        </g>
        <g transform="translate(188.854 39.204)">
            <mask id="b" fill="#fff">
                <use xlink:href="#a"/>
            </mask>
            <path fill="#562A73" d="M-3.616 8.644h15.229V-3.59h-15.23z" mask="url(#b)"/>
        </g>
        <path stroke="#562A73" stroke-width=".501" d="M196.16 40.772l-6.204 3.033a.474.474 0 0 1-.608-.28l-.083-.225a.476.476 0 0 1 .28-.612l6.203-3.033a.474.474 0 0 1 .61.28l.082.226a.476.476 0 0 1-.28.611z"/>
        <g transform="translate(193.65 33.585)">
            <mask id="d" fill="#fff">
                <use xlink:href="#c"/>
            </mask>
            <path fill="#562A73" d="M-3.839 15.423h14.394V-3.434H-3.839z" mask="url(#d)"/>
        </g>
        <path stroke="#562A73" stroke-width=".501" d="M198.903 44.514l-5.011-9.318c-.164-.368-.079-.764.19-.886l.246-.11c.27-.122.622.077.786.445l5.01 9.318c.164.367.08.763-.19.885l-.245.111c-.27.121-.622-.078-.786-.445z"/>
        <g transform="translate(208.04 53.651)">
            <mask id="f" fill="#fff">
                <use xlink:href="#e"/>
            </mask>
            <path fill="#562A73" d="M-3.656 10.758h31.59V-3.778h-31.59z" mask="url(#f)"/>
        </g>
        <path stroke="#562A73" stroke-width=".501" d="M228.735 60.397h-17.048c-.736 0-3.24-1.465-3.24-3.255 0-1.79-.503-3.255 1.28-3.255l19.008 1.915c1.783 0 3.241-.45 3.241 1.34s-1.458 3.255-3.241 3.255z"/>
        <g transform="translate(226.426 25.559)">
            <mask id="h" fill="#fff">
                <use xlink:href="#g"/>
            </mask>
            <path fill="#562A73" d="M-3.69 37.466h14.867V-3.621H-3.689z" mask="url(#h)"/>
        </g>
        <g stroke="#562A73">
            <path stroke-width=".501" d="M226.733 54.514V30.859c0-1.023.566-4.893 2.456-4.893 0 0 4.416-.287 4.416 1.58l-1.247 26.968c0 2.474-.299 4.498-2.19 4.498-1.888 0-3.435-2.024-3.435-4.498z"/>
            <path stroke-linecap="round" stroke-linejoin="round" stroke-width=".806" d="M177.07 31.387c2.382 0 6.59-1.94 6.59-4.331 0-2.393-4.208-4.332-6.59-4.332v8.663z"/>
            <path stroke-linecap="round" stroke-linejoin="round" stroke-width=".5" d="M178.856 23.117v7.804"/>
        </g>
        <g transform="translate(198.447 80.138)">
            <mask id="j" fill="#fff">
                <use xlink:href="#i"/>
            </mask>
            <path fill="#00ADF2" d="M-3.512 7.767H14.36V-3.41H-3.51z" mask="url(#j)"/>
        </g>
        <g transform="translate(147.286 78.533)">
            <mask id="l" fill="#fff">
                <use xlink:href="#k"/>
            </mask>
            <path fill="#562A73" d="M-3.433 40.295h9.459v-43.96h-9.46z" mask="url(#l)"/>
        </g>
        <path stroke="#562A73" stroke-width=".5" d="M148.847 78.88h-.53a.469.469 0 0 0-.468.469v34.996c0 .26.21.47.467.47h.531c.258 0 .467-.21.467-.47V79.35a.468.468 0 0 0-.467-.469z"/>
        <g transform="translate(123.304 95.388)">
            <mask id="n" fill="#fff">
                <use xlink:href="#m"/>
            </mask>
            <path fill="#562A73" d="M-3.735 7.289h33.231V-3.494h-33.23z" mask="url(#n)"/>
        </g>
        <g stroke="#562A73">
            <path stroke-width=".5" d="M123.566 98.663h25.237v-2.756h-22.58z"/>
            <path stroke-linecap="round" stroke-linejoin="round" stroke-width="1.613" d="M192.395 96.148c0-10.438-8.428-18.9-18.823-18.9-10.396 0-18.824 8.462-18.824 18.9 0 10.439 8.428 18.9 18.824 18.9 10.395 0 18.823-8.461 18.823-18.9z"/>
            <path stroke-linecap="round" stroke-linejoin="round" stroke-width=".806" d="M183.806 96.148c0-5.675-4.582-10.276-10.234-10.276-5.653 0-10.235 4.6-10.235 10.276 0 5.675 4.582 10.276 10.235 10.276 5.652 0 10.234-4.601 10.234-10.276z"/>
        </g>
        <g transform="translate(169.669 92.177)">
            <mask id="p" fill="#fff">
                <use xlink:href="#o"/>
            </mask>
            <path fill="#562A73" d="M-3.568 11.472h14.942V-3.531H-3.568z" mask="url(#p)"/>
        </g>
        <g transform="translate(172.067 88.164)">
            <mask id="r" fill="#fff">
                <use xlink:href="#q"/>
            </mask>
            <path fill="#562A73" d="M-3.451 6.069h9.91v-9.951h-9.91z" mask="url(#r)"/>
        </g>
        <g transform="translate(172.067 101.809)">
            <mask id="t" fill="#fff">
                <use xlink:href="#s"/>
            </mask>
            <path fill="#562A73" d="M-3.81 6.205H6.1v-9.95h-9.91z" mask="url(#t)"/>
        </g>
        <g transform="translate(179.261 94.585)">
            <mask id="v" fill="#fff">
                <use xlink:href="#u"/>
            </mask>
            <path fill="#562A73" d="M-3.783 6.538h9.911v-9.95h-9.91z" mask="url(#v)"/>
        </g>
        <g transform="translate(165.672 94.585)">
            <mask id="x" fill="#fff">
                <use xlink:href="#w"/>
            </mask>
            <path fill="#562A73" d="M-3.919 6.538h9.91v-9.95h-9.91z" mask="url(#x)"/>
        </g>
        <g transform="translate(177.663 99.401)">
            <mask id="z" fill="#fff">
                <use xlink:href="#y"/>
            </mask>
            <path fill="#562A73" d="M-3.803 6.595h9.911v-9.95h-9.91z" mask="url(#z)"/>
        </g>
        <g transform="translate(167.27 89.77)">
            <mask id="B" fill="#fff">
                <use xlink:href="#A"/>
            </mask>
            <path fill="#562A73" d="M-3.507 6.481h9.91v-9.95h-9.91z" mask="url(#B)"/>
        </g>
        <g transform="translate(167.27 99.401)">
            <mask id="D" fill="#fff">
                <use xlink:href="#C"/>
            </mask>
            <path fill="#562A73" d="M-3.867 6.595h9.91v-9.95h-9.91z" mask="url(#D)"/>
        </g>
        <g transform="translate(176.863 89.77)">
            <mask id="F" fill="#fff">
                <use xlink:href="#E"/>
            </mask>
            <path fill="#562A73" d="M-3.394 6.481h9.91v-9.95h-9.91z" mask="url(#F)"/>
        </g>
        <g stroke="#562A73" stroke-linecap="round" stroke-linejoin="round">
            <path stroke-width="1.613" d="M243.99 102.35c0-7.014-5.661-12.699-12.646-12.699-6.985 0-12.647 5.685-12.647 12.699 0 7.012 5.662 12.698 12.647 12.698s12.647-5.686 12.647-12.698z"/>
            <path stroke-width=".806" d="M238.22 102.35c0-3.813-3.079-6.904-6.876-6.904-3.798 0-6.876 3.09-6.876 6.904 0 3.813 3.078 6.904 6.876 6.904 3.797 0 6.876-3.09 6.876-6.904z"/>
        </g>
        <g transform="translate(228.824 99.401)">
            <mask id="H" fill="#fff">
                <use xlink:href="#G"/>
            </mask>
            <path fill="#562A73" d="M-3.688 9.181H8.728V-3.284H-3.688z" mask="url(#H)"/>
        </g>
        <g transform="translate(230.422 96.993)">
            <mask id="J" fill="#fff">
                <use xlink:href="#I"/>
            </mask>
            <path fill="#562A73" d="M-3.72 5.386h9.282v-9.319H-3.72z" mask="url(#J)"/>
        </g>
        <g transform="translate(230.422 105.822)">
            <mask id="L" fill="#fff">
                <use xlink:href="#K"/>
            </mask>
            <path fill="#562A73" d="M-3.72 5.817h9.282v-9.319H-3.72z" mask="url(#L)"/>
        </g>
        <g transform="translate(235.219 101.006)">
            <mask id="N" fill="#fff">
                <use xlink:href="#M"/>
            </mask>
            <path fill="#562A73" d="M-3.905 6.003h9.282v-9.32h-9.282z" mask="url(#N)"/>
        </g>
        <g transform="translate(225.626 101.006)">
            <mask id="P" fill="#fff">
                <use xlink:href="#O"/>
            </mask>
            <path fill="#562A73" d="M-3.534 6.003h9.282v-9.32h-9.282z" mask="url(#P)"/>
        </g>
        <g transform="translate(233.62 104.217)">
            <mask id="R" fill="#fff">
                <use xlink:href="#Q"/>
            </mask>
            <path fill="#562A73" d="M-3.656 6.066h9.281v-9.32h-9.281z" mask="url(#R)"/>
        </g>
        <g transform="translate(227.225 97.796)">
            <mask id="T" fill="#fff">
                <use xlink:href="#S"/>
            </mask>
            <path fill="#562A73" d="M-3.783 5.94H5.5v-9.32h-9.282z" mask="url(#T)"/>
        </g>
        <g transform="translate(227.225 104.217)">
            <mask id="V" fill="#fff">
                <use xlink:href="#U"/>
            </mask>
            <path fill="#562A73" d="M-3.783 6.066H5.5v-9.32h-9.282z" mask="url(#V)"/>
        </g>
        <g transform="translate(233.62 97.796)">
            <mask id="X" fill="#fff">
                <use xlink:href="#W"/>
            </mask>
            <path fill="#562A73" d="M-3.656 5.94h9.28v-9.32h-9.28z" mask="url(#X)"/>
        </g>
        <g transform="translate(.198 80.138)">
            <mask id="Z" fill="#fff">
                <use xlink:href="#Y"/>
            </mask>
            <path fill="#562A73" d="M-3.997 38.948h43.688v-42.27H-3.997z" mask="url(#Z)"/>
        </g>
        <g transform="translate(37.769 87.362)">
            <mask id="ab" fill="#fff">
                <use xlink:href="#aa"/>
            </mask>
            <path fill="#562A73" d="M-3.959 31.63h36.681V-3.229h-36.68z" mask="url(#ab)"/>
        </g>
        <g transform="translate(68.146 87.362)">
            <mask id="ad" fill="#fff">
                <use xlink:href="#ac"/>
            </mask>
            <path fill="#562A73" d="M-3.266 38.526h37.149V-3.228H-3.266z" mask="url(#ad)"/>
        </g>
        <g transform="translate(99.322 86.559)">
            <mask id="af" fill="#fff">
                <use xlink:href="#ae"/>
            </mask>
            <path fill="#00AEEF" d="M-3.636 31.927H34.26V-3.905H-3.636z" mask="url(#af)"/>
        </g>
    </g>
</svg>
